<?xml version="1.0" encoding="UTF-8"?>
<svg version="1.1" xmlns="http://www.w3.org/2000/svg" width="163" height="163">
<path d="M0 0 C3.35717441 1.32888154 4.69316115 2.71290987 6.3203125 5.93359375 C7.62844095 10.27146798 7.29150488 14.70966109 7 19.1875 C8.175625 19.620625 8.175625 19.620625 9.375 20.0625 C12 21.1875 12 21.1875 14 23.1875 C14.22705078 25.06689453 14.22705078 25.06689453 14.1953125 27.3203125 C14.18886719 28.12597656 14.18242188 28.93164062 14.17578125 29.76171875 C14.15064453 31.02435547 14.15064453 31.02435547 14.125 32.3125 C14.11597656 33.16199219 14.10695313 34.01148438 14.09765625 34.88671875 C14.07405647 36.98709884 14.03818483 39.08733444 14 41.1875 C12.86175781 41.62320313 11.72351563 42.05890625 10.55078125 42.5078125 C8.01833144 43.95802425 7.15369244 44.63542829 6.36083984 47.48339844 C6.15503835 50.36045128 6.12922221 53.17868954 6.1875 56.0625 C6.18878498 58.01823958 6.18248464 59.97400137 6.16796875 61.9296875 C6.18110107 62.7944873 6.1942334 63.65928711 6.20776367 64.55029297 C5.96263659 67.66176504 5.08051621 70.27039948 4 73.1875 C7.8830008 75.39838665 11.78321021 77.57696335 15.6875 79.75 C16.79029297 80.37841797 17.89308594 81.00683594 19.02929688 81.65429688 C20.09599609 82.24404297 21.16269531 82.83378906 22.26171875 83.44140625 C23.24100342 83.99127197 24.22028809 84.5411377 25.22924805 85.10766602 C29.16427938 86.64124991 31.49646396 85.75640553 35.3125 84.3125 C39.05401884 84.13847587 41.29128713 85.24502041 44.36328125 87.328125 C46.52399181 89.78277471 46.76779302 91.44536483 47 94.6875 C46.76779302 97.92963517 46.52399181 99.59222529 44.36328125 102.046875 C41.32032751 104.11028744 39.01175509 105.1875 35.3125 105.1875 C32.58641677 104.0086532 30.35220864 103.03112299 28 101.1875 C27.27256991 99.20879085 26.59900391 97.20879631 26 95.1875 C13.17814182 102.36937484 0.41497625 109.62606888 -12.16650391 117.22338867 C-13.47047119 118.004198 -13.47047119 118.004198 -14.80078125 118.80078125 C-15.56559814 119.26266846 -16.33041504 119.72455566 -17.1184082 120.20043945 C-19 121.1875 -19 121.1875 -21 121.1875 C-21 125.4775 -21 129.7675 -21 134.1875 C-27.08823529 138.20573529 -27.08823529 138.20573529 -31.125 138.125 C-34.23251174 137.11168095 -36.43793258 136.23365623 -39 134.1875 C-39.03125 131.33203125 -39.03125 131.33203125 -38.5 128 C-38.28584893 124.48193797 -38.28584893 124.48193797 -39 121.1875 C-42.02359153 118.0010997 -45.68401885 116.33341279 -49.60058594 114.41748047 C-54.73711065 111.78441052 -59.65542451 108.74465332 -64.625 105.8125 C-67.63614022 104.06350211 -70.64900503 102.31752178 -73.66259766 100.57275391 C-75.47502478 99.49862486 -77.24702872 98.35614752 -79 97.1875 C-79.185625 97.93 -79.37125 98.6725 -79.5625 99.4375 C-81.51710625 103.17674675 -84.00714642 104.87098429 -88 106.1875 C-90.625 105.625 -90.625 105.625 -93 104.1875 C-93.86753906 103.79046875 -94.73507813 103.3934375 -95.62890625 102.984375 C-98 101.1875 -98 101.1875 -98.48828125 98.26953125 C-98.43027344 97.19058594 -98.37226562 96.11164063 -98.3125 95 C-98.24482422 93.36998047 -98.24482422 93.36998047 -98.17578125 91.70703125 C-98.08876953 90.45986328 -98.08876953 90.45986328 -98 89.1875 C-91.83061349 85.03260704 -91.83061349 85.03260704 -87.6484375 85.8125 C-82.9375884 86.29669862 -81.43065487 85.03239593 -77.6875 82.25 C-72.13379074 78.1875 -72.13379074 78.1875 -70 78.1875 C-70 77.5275 -70 76.8675 -70 76.1875 C-70.928125 75.89875 -71.85625 75.61 -72.8125 75.3125 C-76 74.1875 -76 74.1875 -79 72.1875 C-79.38623467 69.29523106 -79.55528671 66.7074339 -79.5625 63.8125 C-79.59923828 63.04421875 -79.63597656 62.2759375 -79.67382812 61.484375 C-79.69141228 59.22578775 -79.62680159 57.36007244 -79 55.1875 C-76.01171875 52.9375 -76.01171875 52.9375 -73 51.1875 C-72.14937071 48.92837107 -72.14937071 48.92837107 -72.25 46.5625 C-72.16610169 42.35360169 -72.16610169 42.35360169 -70 40.1875 C-66.5 39.9375 -66.5 39.9375 -63 40.1875 C-62.34 40.8475 -61.68 41.5075 -61 42.1875 C-61.01683838 41.21401611 -61.03367676 40.24053223 -61.05102539 39.23754883 C-61.10180918 35.61207357 -61.09326076 31.98870673 -61.06713867 28.36303711 C-61.0640637 26.79657976 -61.07690372 25.23000473 -61.10620117 23.66381836 C-61.33246379 10.70925483 -61.33246379 10.70925483 -58.11645508 7.03637695 C-51.8707012 3.37821476 -46.0075224 3.6359101 -39 4.1875 C-37.49220912 4.24922835 -35.98439499 4.31039044 -34.4765625 4.37109375 C-22.41766937 5.06461585 -22.41766937 5.06461585 -18.5390625 8.13671875 C-16.8125 10.375 -16.8125 10.375 -15.390625 12.54296875 C-14.70226562 13.35701172 -14.70226562 13.35701172 -14 14.1875 C-10.14939633 14.39120117 -10.14939633 14.39120117 -7 13.1875 C-7.04640625 12.58421875 -7.0928125 11.9809375 -7.140625 11.359375 C-7.43293247 4.88685245 -7.43293247 4.88685245 -5.375 1.5625 C-3 0.1875 -3 0.1875 0 0 Z M-4 3.1875 C-6.28062828 6.60844242 -6.21925007 7.86937222 -6.125 11.875 C-6.10695313 12.86886719 -6.08890625 13.86273438 -6.0703125 14.88671875 C-6.04710938 15.64597656 -6.02390625 16.40523437 -6 17.1875 C-5.34 17.1875 -4.68 17.1875 -4 17.1875 C-3.67 13.5575 -3.34 9.9275 -3 6.1875 C-2.01 5.8575 -1.02 5.5275 0 5.1875 C-1.32 4.5275 -2.64 3.8675 -4 3.1875 Z M-3 7.1875 C-3 10.4875 -3 13.7875 -3 17.1875 C-2.67 17.1875 -2.34 17.1875 -2 17.1875 C-2 13.8875 -2 10.5875 -2 7.1875 C-2.33 7.1875 -2.66 7.1875 -3 7.1875 Z M-1 8.1875 C-1 10.1675 -1 12.1475 -1 14.1875 C-0.34 14.1875 0.32 14.1875 1 14.1875 C0.67 12.2075 0.34 10.2275 0 8.1875 C-0.33 8.1875 -0.66 8.1875 -1 8.1875 Z M2 9.1875 C2 13.4775 2 17.7675 2 22.1875 C2.33 22.1875 2.66 22.1875 3 22.1875 C3 17.8975 3 13.6075 3 9.1875 C2.67 9.1875 2.34 9.1875 2 9.1875 Z M5 12.1875 C5 15.1575 5 18.1275 5 21.1875 C5.33 21.1875 5.66 21.1875 6 21.1875 C6 18.2175 6 15.2475 6 12.1875 C5.67 12.1875 5.34 12.1875 5 12.1875 Z M-9 15.1875 C-9.66 15.8475 -10.32 16.5075 -11 17.1875 C-9.02 18.1775 -9.02 18.1775 -7 19.1875 C-7 17.8675 -7 16.5475 -7 15.1875 C-7.66 15.1875 -8.32 15.1875 -9 15.1875 Z M-1 16.1875 C-2.54166642 17.56235532 -2.54166642 17.56235532 -4 19.1875 C-4 19.8475 -4 20.5075 -4 21.1875 C-1.525 22.1775 -1.525 22.1775 1 23.1875 C1 21.2075 1 19.2275 1 17.1875 C0.34 16.8575 -0.32 16.5275 -1 16.1875 Z M7 21.1875 C5.68 22.5075 4.36 23.8275 3 25.1875 C5.3015411 25.96552187 5.3015411 25.96552187 8 26.1875 C10.30504044 24.85596734 10.30504044 24.85596734 12 23.1875 C9.525 22.1975 9.525 22.1975 7 21.1875 Z M-6 22.1875 C-2.43679155 27.27960286 1.04741286 31.41410027 6 35.1875 C6.83787121 31.94539481 6.83787121 31.94539481 6 28.1875 C2.70773563 25.43798211 -1.57506482 22.1875 -6 22.1875 Z M7 28.1875 C6.39375602 31.61110738 6.39375602 31.61110738 6.6875 35.375 C6.73261719 36.64730469 6.77773437 37.91960938 6.82421875 39.23046875 C6.88222656 40.20628906 6.94023438 41.18210937 7 42.1875 C10.24983135 41.09965032 10.24983135 41.09965032 13 39.1875 C13.07271741 36.83436445 13.08370868 34.47916332 13.0625 32.125 C13.05347656 30.83464844 13.04445313 29.54429688 13.03515625 28.21484375 C13.02355469 27.21582031 13.01195313 26.21679688 13 25.1875 C10.45243883 25.1875 8.89717139 26.68243081 7 28.1875 Z M-69 42.1875 C-71.30060534 44.0503949 -71.30060534 44.0503949 -71.1953125 47.0078125 C-71.17210938 48.09835938 -71.14890625 49.18890625 -71.125 50.3125 C-71.10695313 51.40820312 -71.08890625 52.50390625 -71.0703125 53.6328125 C-71.04710938 54.47585937 -71.02390625 55.31890625 -71 56.1875 C-70.67 56.1875 -70.34 56.1875 -70 56.1875 C-70 52.5575 -70 48.9275 -70 45.1875 C-68.35 45.1875 -66.7 45.1875 -65 45.1875 C-66.32 44.1975 -67.64 43.2075 -69 42.1875 Z M-66 48.1875 C-66 49.8375 -66 51.4875 -66 53.1875 C-65.67 53.1875 -65.34 53.1875 -65 53.1875 C-65 51.5375 -65 49.8875 -65 48.1875 C-65.33 48.1875 -65.66 48.1875 -66 48.1875 Z M-69 49.1875 C-69 51.4975 -69 53.8075 -69 56.1875 C-68.67 56.1875 -68.34 56.1875 -68 56.1875 C-68 53.8775 -68 51.5675 -68 49.1875 C-68.33 49.1875 -68.66 49.1875 -69 49.1875 Z M-59 49.1875 C-59 51.8275 -59 54.4675 -59 57.1875 C-58.34 57.1875 -57.68 57.1875 -57 57.1875 C-57 57.8475 -57 58.5075 -57 59.1875 C-55.68 59.8475 -54.36 60.5075 -53 61.1875 C-54.58962659 57.15229403 -56.28232318 53.16938718 -58 49.1875 C-58.33 49.1875 -58.66 49.1875 -59 49.1875 Z M-64 50.1875 C-64 53.1575 -64 56.1275 -64 59.1875 C-63.67 59.1875 -63.34 59.1875 -63 59.1875 C-63 56.2175 -63 53.2475 -63 50.1875 C-63.33 50.1875 -63.66 50.1875 -64 50.1875 Z M-61 51.1875 C-61 53.8275 -61 56.4675 -61 59.1875 C-60.67 59.1875 -60.34 59.1875 -60 59.1875 C-60 56.5475 -60 53.9075 -60 51.1875 C-60.33 51.1875 -60.66 51.1875 -61 51.1875 Z M-75 54.1875 C-75.33 54.8475 -75.66 55.5075 -76 56.1875 C-74.68 56.5175 -73.36 56.8475 -72 57.1875 C-72.33 56.1975 -72.66 55.2075 -73 54.1875 C-73.66 54.1875 -74.32 54.1875 -75 54.1875 Z M-71 59.1875 C-69.02 59.8475 -67.04 60.5075 -65 61.1875 C-65 59.2075 -65 57.2275 -65 55.1875 C-67.22114466 55.1875 -69.35878948 57.84086573 -71 59.1875 Z M-77 57.1875 C-78.15844612 65.65345275 -78.15844612 65.65345275 -75.4296875 73.30078125 C-71.91969299 75.66969389 -69.90667109 76.34146302 -65.6875 75.625 C-62.89276668 74.18584114 -62.89276668 74.18584114 -60 72.1875 C-59.7497843 69.10384129 -59.7497843 69.10384129 -60 66.1875 C-62.64440376 64.68493011 -65.29041852 63.1853388 -67.9375 61.6875 C-68.69224609 61.25824219 -69.44699219 60.82898438 -70.22460938 60.38671875 C-70.94326172 59.98066406 -71.66191406 59.57460937 -72.40234375 59.15625 C-73.06741943 58.77919922 -73.73249512 58.40214844 -74.41772461 58.01367188 C-75.850243 57.11035893 -75.850243 57.11035893 -77 57.1875 Z M-64 62.1875 C-62.32511472 63.92397948 -62.32511472 63.92397948 -60 65.1875 C-57.26601865 64.47792763 -57.26601865 64.47792763 -55 63.1875 C-55 62.5275 -55 61.8675 -55 61.1875 C-58.61944899 59.84696334 -60.57367167 60.56951162 -64 62.1875 Z M-52 62.1875 C-51 64.1875 -51 64.1875 -51 64.1875 Z M-59 66.1875 C-59 67.5075 -59 68.8275 -59 70.1875 C-56.49034386 69.48410434 -56.49034386 69.48410434 -54 68.1875 C-53.11306697 66.14644361 -53.11306697 66.14644361 -53 64.1875 C-55.46278801 64.1875 -56.85224119 65.04202863 -59 66.1875 Z M30 89.1875 C32.05099476 91.46373195 32.05099476 91.46373195 35 93.1875 C38.74660307 92.71269289 38.74660307 92.71269289 42 91.1875 C42.33 90.5275 42.66 89.8675 43 89.1875 C37.54653119 85.65011482 35.45346881 85.65011482 30 89.1875 Z M-95 89.1875 C-95 89.8475 -95 90.5075 -95 91.1875 C-92.31920844 92.94032525 -91.13111361 93.20061136 -87.875 92.875 C-85.07820442 92.32115666 -85.07820442 92.32115666 -83 91.1875 C-83 90.5275 -83 89.8675 -83 89.1875 C-87.42000813 86.66178107 -90.57999187 86.66178107 -95 89.1875 Z M29 91.1875 C29 93.8275 29 96.4675 29 99.1875 C30.98 100.1775 32.96 101.1675 35 102.1875 C35 99.5475 35 96.9075 35 94.1875 C33.02 93.1975 31.04 92.2075 29 91.1875 Z M-96 92.1875 C-96 94.8275 -96 97.4675 -96 100.1875 C-94.02 101.1775 -92.04 102.1675 -90 103.1875 C-90 100.5475 -90 97.9075 -90 95.1875 C-91.98 94.1975 -93.96 93.2075 -96 92.1875 Z M37 95.1875 C36.5425338 97.981902 36.76582813 100.33060315 37 103.1875 C39.31 101.8675 41.62 100.5475 44 99.1875 C44 96.8775 44 94.5675 44 92.1875 C40.83044309 92.1875 39.40859879 93.15920628 37 95.1875 Z M-88 95.1875 C-88 97.8275 -88 100.4675 -88 103.1875 C-85.69 102.1975 -83.38 101.2075 -81 100.1875 C-81 98.5375 -81 96.8875 -81 95.1875 C-84.58327753 94.18532936 -84.58327753 94.18532936 -88 95.1875 Z M-36 123.1875 C-34.36290685 124.87614588 -34.36290685 124.87614588 -32 126.1875 C-28.98266875 125.9461135 -26.70716958 125.54108479 -24 124.1875 C-24 123.5275 -24 122.8675 -24 122.1875 C-28.79194459 119.44924595 -31.79996863 119.58747311 -36 123.1875 Z M-38 125.1875 C-37.88455718 129.27314325 -37.88455718 129.27314325 -37 133.1875 C-34.08158143 135.27382697 -34.08158143 135.27382697 -31 136.1875 C-30.65418096 132.15625257 -30.65418096 132.15625257 -31 128.1875 C-33.40859879 126.15920628 -34.83044309 125.1875 -38 125.1875 Z M-30 128.1875 C-30 130.8275 -30 133.4675 -30 136.1875 C-26.45481116 134.78990095 -26.45481116 134.78990095 -23 133.1875 C-23 130.5475 -23 127.9075 -23 125.1875 C-25.37220987 125.1875 -27.92877733 127.12985438 -30 128.1875 Z " fill="#D9E2FE" transform="translate(105,24.8125)"/>
<path d="M0 0 C23.18534065 -0.07474836 23.18534065 -0.07474836 28.828125 4.5234375 C31.61927776 7.40096752 33.77361253 10.67709585 36 14 C37.44031043 15.51702799 38.9163875 17.0015039 40.4375 18.4375 C47.76836639 25.51503192 47.76836639 25.51503192 48.51757812 30.31811523 C48.52208984 31.55247314 48.52660156 32.78683105 48.53125 34.05859375 C48.5350769 34.72536636 48.53890381 35.39213898 48.54284668 36.07911682 C48.54555756 37.48350543 48.53825396 38.88794523 48.52148438 40.29223633 C48.50009107 42.42840604 48.52129044 44.56120074 48.546875 46.69726562 C48.54423091 48.06771568 48.53910424 49.43816365 48.53125 50.80859375 C48.52673828 52.04407959 48.52222656 53.27956543 48.51757812 54.55249023 C47.90145585 58.65638773 46.61521623 60.80781191 44 64 C41.05575462 65.57727431 39.17419734 66.32793867 36 67 C34.59621094 67.31324219 34.59621094 67.31324219 33.1640625 67.6328125 C29.69494267 68.05196065 27.3555131 68.01708558 24 67 C20.39154116 63.70114266 17.86735728 59.99617934 15.24414062 55.89501953 C13.99574474 53.99351858 12.67113541 52.18328907 11.296875 50.37109375 C10.40610467 49.18500497 9.5154755 47.99881015 8.625 46.8125 C8.22007324 46.27995605 7.81514648 45.74741211 7.39794922 45.19873047 C0.31372613 35.42138047 -0.54701573 26.1575579 -0.25 14.375 C-0.22988824 12.9752862 -0.21164579 11.57554424 -0.1953125 10.17578125 C-0.14851718 6.78312085 -0.08296363 3.39193616 0 0 Z " fill="#4585FE" transform="translate(48,39)"/>
<path d="M0 0 C1.33852457 0.12128256 2.67706763 0.24236115 4.015625 0.36328125 C5.44830047 0.509303 6.88060076 0.6590532 8.3125 0.8125 C8.99449463 0.88210937 9.67648926 0.95171875 10.37915039 1.0234375 C17.1529209 1.86359508 20.57878862 4.18742143 24.765625 9.47265625 C27.29456678 12.60182155 30.28606854 15.31042167 33.17578125 18.1015625 C37.33206887 22.16941847 41.03990902 25.9807153 44 31 C40.7 32.65 37.4 34.3 34 36 C33.01 35.01 32.02 34.02 31 33 C31 32.34 31 31.68 31 31 C30.34 31 29.68 31 29 31 C27.2734375 29.25 27.2734375 29.25 25.375 27 C24.74335937 26.2575 24.11171875 25.515 23.4609375 24.75 C22.97882813 24.1725 22.49671875 23.595 22 23 C22 23.99 22 24.98 22 26 C18.10753855 22.82248045 14.97576521 19.99484047 12.0625 15.90625 C8.11268771 11.33317135 4.34903908 10.81045048 -1.50195312 10.23046875 C-2.63568359 10.15441406 -3.76941406 10.07835937 -4.9375 10 C-6.09830078 9.89300781 -7.25910156 9.78601562 -8.45507812 9.67578125 C-11.30223713 9.41801377 -14.1478974 9.19386008 -17 9 C-16.98031125 13.05356604 -16.92780269 17.10537625 -16.84741211 21.15820312 C-16.82449789 22.5311335 -16.80990009 23.90423301 -16.80444336 25.27734375 C-16.74458355 37.87553132 -14.2123785 47.79808902 -6.1875 57.625 C-5.54772217 58.42321167 -5.54772217 58.42321167 -4.89501953 59.23754883 C-3.60992218 60.83639345 -2.30734042 62.41932019 -1 64 C0.54490627 65.89319432 2.08689614 67.78877499 3.625 69.6875 C4.27726562 70.47511719 4.92953125 71.26273437 5.6015625 72.07421875 C7 74 7 74 7 76 C9.58463502 75.71749338 12.16731135 75.4243774 14.75 75.125 C15.47960937 75.04636719 16.20921875 74.96773438 16.9609375 74.88671875 C20.71480059 74.44308038 23.76892849 73.98111317 27 72 C31.85386689 64.9085349 31.65619472 57.89130824 31.75 49.5 C31.77964844 48.200625 31.80929688 46.90125 31.83984375 45.5625 C31.9101576 42.37493894 31.96304768 39.18809318 32 36 C32.99 36.495 32.99 36.495 34 37 C34.07451364 41.3049777 34.12877223 45.60960734 34.16479492 49.91503906 C34.17982196 51.37767075 34.20024955 52.84025782 34.22631836 54.30273438 C34.26297267 56.4128728 34.27978676 58.52241226 34.29296875 60.6328125 C34.3086792 61.90012207 34.32438965 63.16743164 34.34057617 64.47314453 C33.96871445 68.32397921 32.99949775 70.71168592 31 74 C29.1328125 75.42578125 29.1328125 75.42578125 27.125 76.3125 C26.13886719 76.77076172 26.13886719 76.77076172 25.1328125 77.23828125 C20.79047912 78.7891146 16.77933142 79.11782327 12.1875 79.0625 C10.72376953 79.04896484 10.72376953 79.04896484 9.23046875 79.03515625 C8.49441406 79.02355469 7.75835937 79.01195313 7 79 C6.34 77.68 5.68 76.36 5 75 C4.34 75 3.68 75 3 75 C1.69067383 73.62988281 1.69067383 73.62988281 0.20703125 71.703125 C-0.33783936 70.99712158 -0.88270996 70.29111816 -1.4440918 69.5637207 C-2.0194165 68.80019287 -2.59474121 68.03666504 -3.1875 67.25 C-3.77249268 66.47809326 -4.35748535 65.70618652 -4.96020508 64.91088867 C-14.58780356 52.0326558 -19.43679706 41.51945978 -19.64526367 25.35058594 C-19.6734298 23.78305125 -19.72130399 22.2157474 -19.78881836 20.64941406 C-20.34433749 7.69182852 -20.34433749 7.69182852 -17.1081543 3.61914062 C-11.49330575 -0.29752187 -6.65667762 -0.74843598 0 0 Z " fill="#FBFCFE" transform="translate(65,30)"/>
<path d="M0 0 C2.78812906 4.01900877 2.28751459 8.50763849 2.36328125 13.22265625 C2.73506983 16.23143936 2.73506983 16.23143936 5.54296875 17.87109375 C6.75919922 18.42990234 6.75919922 18.42990234 8 19 C5.82575883 21.50037734 4.26954202 22.43628586 1 23 C1.33 23.33 1.66 23.66 2 24 C2.07271741 26.35313555 2.08370868 28.70833668 2.0625 31.0625 C2.05347656 32.35285156 2.04445313 33.64320312 2.03515625 34.97265625 C2.02355469 35.97167969 2.01195313 36.97070312 2 38 C-4.32588843 35.64119414 -10.08359277 32.22713122 -16 29 C-16 24.05 -16 19.1 -16 14 C-15.34 14 -14.68 14 -14 14 C-13.67 13.01 -13.34 12.02 -13 11 C-11.68 10.67 -10.36 10.34 -9 10 C-9 7.03 -9 4.06 -9 1 C-3.375 -1.125 -3.375 -1.125 0 0 Z " fill="#F5F9FF" transform="translate(75,49)"/>
<path d="M0 0 C0.98033203 0.04962891 1.96066406 0.09925781 2.97070312 0.15039062 C10.99914102 0.78808732 10.99914102 0.78808732 14.12109375 4.40234375 C15.9375 7.4375 15.9375 7.4375 15.9375 9.4375 C16.5975 9.4375 17.2575 9.4375 17.9375 9.4375 C21.14364467 12.84402872 22.68559374 15.95150257 23.9375 20.4375 C20.04503855 17.25998045 16.91326521 14.43234047 14 10.34375 C10.05018771 5.77067135 6.28653908 5.24795048 0.43554688 4.66796875 C-0.69818359 4.59191406 -1.83191406 4.51585937 -3 4.4375 C-4.16080078 4.33050781 -5.32160156 4.22351562 -6.51757812 4.11328125 C-9.36473713 3.85551377 -12.2103974 3.63136008 -15.0625 3.4375 C-15.04281125 7.49106604 -14.99030269 11.54287625 -14.90991211 15.59570312 C-14.88699789 16.9686335 -14.87240009 18.34173301 -14.86694336 19.71484375 C-14.80708355 32.31303132 -12.2748785 42.23558902 -4.25 52.0625 C-3.61022217 52.86071167 -3.61022217 52.86071167 -2.95751953 53.67504883 C-1.67242218 55.27389345 -0.36984042 56.85682019 0.9375 58.4375 C2.48240627 60.33069432 4.02439614 62.22627499 5.5625 64.125 C6.21476562 64.91261719 6.86703125 65.70023437 7.5390625 66.51171875 C8.9375 68.4375 8.9375 68.4375 8.9375 70.4375 C11.52213502 70.15499338 14.10481135 69.8618774 16.6875 69.5625 C17.41710937 69.48386719 18.14671875 69.40523438 18.8984375 69.32421875 C22.65230059 68.88058038 25.70642849 68.41861317 28.9375 66.4375 C33.79136689 59.3460349 33.59369472 52.32880824 33.6875 43.9375 C33.71714844 42.638125 33.74679688 41.33875 33.77734375 40 C33.8476576 36.81243894 33.90054768 33.62559318 33.9375 30.4375 C34.5975 30.7675 35.2575 31.0975 35.9375 31.4375 C36.01201364 35.7424777 36.06627223 40.04710734 36.10229492 44.35253906 C36.11732196 45.81517075 36.13774955 47.27775782 36.16381836 48.74023438 C36.20047267 50.8503728 36.21728676 52.95991226 36.23046875 55.0703125 C36.2461792 56.33762207 36.26188965 57.60493164 36.27807617 58.91064453 C35.90621445 62.76147921 34.93699775 65.14918592 32.9375 68.4375 C31.0703125 69.86328125 31.0703125 69.86328125 29.0625 70.75 C28.07636719 71.20826172 28.07636719 71.20826172 27.0703125 71.67578125 C22.72797912 73.2266146 18.71683142 73.55532327 14.125 73.5 C12.66126953 73.48646484 12.66126953 73.48646484 11.16796875 73.47265625 C10.43191406 73.46105469 9.69585937 73.44945313 8.9375 73.4375 C8.2775 72.1175 7.6175 70.7975 6.9375 69.4375 C6.2775 69.4375 5.6175 69.4375 4.9375 69.4375 C3.62817383 68.06738281 3.62817383 68.06738281 2.14453125 66.140625 C1.59966064 65.43462158 1.05479004 64.72861816 0.4934082 64.0012207 C-0.36957886 62.85592896 -0.36957886 62.85592896 -1.25 61.6875 C-1.83499268 60.91559326 -2.41998535 60.14368652 -3.02270508 59.34838867 C-10.6399171 49.15932331 -17.44844854 39.57687666 -17.2578125 26.4140625 C-17.2549826 25.66788666 -17.25215271 24.92171082 -17.24923706 24.15292358 C-17.23811687 21.78928012 -17.21302821 19.42602732 -17.1875 17.0625 C-17.17745962 15.45182842 -17.16833562 13.84115085 -17.16015625 12.23046875 C-17.1382044 8.29933056 -17.10373185 4.36848133 -17.0625 0.4375 C-11.19236608 -0.67799162 -5.92332137 -0.46526419 0 0 Z " fill="#E4EDFE" transform="translate(63.0625,35.5625)"/>
<path d="M0 0 C0.72558105 0.04012207 1.45116211 0.08024414 2.19873047 0.12158203 C4.59438335 0.25591307 6.98320248 0.43448137 9.375 0.625 C10.51666626 0.69182983 10.51666626 0.69182983 11.68139648 0.76000977 C17.70081976 1.34796577 20.11808437 3.40331895 24 8 C23.67 8.66 23.34 9.32 23 10 C22.360625 9.21625 21.72125 8.4325 21.0625 7.625 C17.57100576 4.15312089 13.74387208 3.64963853 9 3 C8.19046875 2.88914062 7.3809375 2.77828125 6.546875 2.6640625 C-4.03431503 1.17837912 -4.03431503 1.17837912 -14.125 3.5 C-14.74375 3.995 -15.3625 4.49 -16 5 C-15.34 5.66 -14.68 6.32 -14 7 C-15.98 7 -17.96 7 -20 7 C-19.95545378 11.65968841 -19.88522025 16.31807189 -19.79248047 20.97705078 C-19.76447921 22.55767355 -19.74316236 24.13843091 -19.72900391 25.71923828 C-19.64086894 37.84315498 -19.64086894 37.84315498 -15.75097656 49.23681641 C-15.5031543 49.81866699 -15.25533203 50.40051758 -15 51 C-15.33 51.66 -15.66 52.32 -16 53 C-17.485 50.525 -17.485 50.525 -19 48 C-19.33 49.65 -19.66 51.3 -20 53 C-19.34 53 -18.68 53 -18 53 C-18 53.66 -18 54.32 -18 55 C-16.35 55.66 -14.7 56.32 -13 57 C-13.33 58.32 -13.66 59.64 -14 61 C-16.97 61.495 -16.97 61.495 -20 62 C-20 66.62 -20 71.24 -20 76 C-18.02 75.505 -18.02 75.505 -16 75 C-17.375 76.5 -17.375 76.5 -19 78 C-19.66 78 -20.32 78 -21 78 C-21 72.72 -21 67.44 -21 62 C-22.98 61.34 -24.96 60.68 -27 60 C-28.82078406 59.01010895 -30.61488021 57.96912852 -32.375 56.875 C-33.24898437 56.33617187 -34.12296875 55.79734375 -35.0234375 55.2421875 C-35.67570312 54.83226562 -36.32796875 54.42234375 -37 54 C-37.46636518 58.42399193 -37.72495939 62.5969378 -37 67 C-34.68314698 69.57089392 -32.22894685 70.82518228 -29 72 C-29.99 72.495 -29.99 72.495 -31 73 C-33.1640625 72.00390625 -33.1640625 72.00390625 -35.625 70.5625 C-36.85089844 69.85287109 -36.85089844 69.85287109 -38.1015625 69.12890625 C-38.72804688 68.75636719 -39.35453125 68.38382812 -40 68 C-40.16225719 65.24763726 -40.2809328 62.50482524 -40.375 59.75 C-40.42527344 58.97269531 -40.47554687 58.19539063 -40.52734375 57.39453125 C-40.58572546 55.11764445 -40.57024039 53.20798437 -40 51 C-37.0234375 48.7421875 -37.0234375 48.7421875 -34 47 C-33.14937071 44.74087107 -33.14937071 44.74087107 -33.25 42.375 C-33.16610169 38.16610169 -33.16610169 38.16610169 -31 36 C-27.5 35.75 -27.5 35.75 -24 36 C-23.34 36.66 -22.68 37.32 -22 38 C-22.01683838 37.02651611 -22.03367676 36.05303223 -22.05102539 35.05004883 C-22.10180918 31.42457357 -22.09326076 27.80120673 -22.06713867 24.17553711 C-22.0640637 22.60907976 -22.07690372 21.04250473 -22.10620117 19.47631836 C-22.33246379 6.52175483 -22.33246379 6.52175483 -19.11645508 2.84887695 C-12.87784465 -0.80510129 -7.00162806 -0.56602309 0 0 Z M-30 38 C-32.30060534 39.8628949 -32.30060534 39.8628949 -32.1953125 42.8203125 C-32.17210937 43.91085938 -32.14890625 45.00140625 -32.125 46.125 C-32.10695313 47.22070312 -32.08890625 48.31640625 -32.0703125 49.4453125 C-32.04710937 50.28835937 -32.02390625 51.13140625 -32 52 C-31.67 52 -31.34 52 -31 52 C-31 48.37 -31 44.74 -31 41 C-29.35 41 -27.7 41 -26 41 C-27.32 40.01 -28.64 39.02 -30 38 Z M-27 44 C-27 45.65 -27 47.3 -27 49 C-26.67 49 -26.34 49 -26 49 C-26 47.35 -26 45.7 -26 44 C-26.33 44 -26.66 44 -27 44 Z M-30 45 C-30 47.31 -30 49.62 -30 52 C-29.67 52 -29.34 52 -29 52 C-29 49.69 -29 47.38 -29 45 C-29.33 45 -29.66 45 -30 45 Z M-25 46 C-25 48.97 -25 51.94 -25 55 C-24.67 55 -24.34 55 -24 55 C-24 52.03 -24 49.06 -24 46 C-24.33 46 -24.66 46 -25 46 Z M-22 47 C-22 49.64 -22 52.28 -22 55 C-21.67 55 -21.34 55 -21 55 C-21 52.36 -21 49.72 -21 47 C-21.33 47 -21.66 47 -22 47 Z M-36 50 C-36.33 50.66 -36.66 51.32 -37 52 C-35.68 52.33 -34.36 52.66 -33 53 C-33.33 52.01 -33.66 51.02 -34 50 C-34.66 50 -35.32 50 -36 50 Z M-32 55 C-30.02 55.66 -28.04 56.32 -26 57 C-26 55.02 -26 53.04 -26 51 C-28.22114466 51 -30.35878948 53.65336573 -32 55 Z M-25 58 C-23.32511472 59.73647948 -23.32511472 59.73647948 -21 61 C-18.26601865 60.29042763 -18.26601865 60.29042763 -16 59 C-16 58.34 -16 57.68 -16 57 C-19.61944899 55.65946334 -21.57367167 56.38201162 -25 58 Z " fill="#639AFE" transform="translate(66,29)"/>
<path d="M0 0 C3.35717441 1.32888154 4.69316115 2.71290987 6.3203125 5.93359375 C7.62844095 10.27146798 7.29150488 14.70966109 7 19.1875 C7.78375 19.47625 8.5675 19.765 9.375 20.0625 C12 21.1875 12 21.1875 14 23.1875 C14.22705078 25.06689453 14.22705078 25.06689453 14.1953125 27.3203125 C14.18886719 28.12597656 14.18242188 28.93164062 14.17578125 29.76171875 C14.15902344 30.60347656 14.14226562 31.44523437 14.125 32.3125 C14.11597656 33.16199219 14.10695313 34.01148438 14.09765625 34.88671875 C14.07405647 36.98709884 14.03818483 39.08733444 14 41.1875 C12.86433594 41.61546875 11.72867188 42.0434375 10.55859375 42.484375 C7.967478 43.96501257 7.14557159 44.6687358 6.32861328 47.58007812 C6.08457211 50.54984768 6.03036045 53.45797481 6.0625 56.4375 C6.04638672 57.46875 6.03027344 58.5 6.01367188 59.5625 C5.97835224 62.10551362 5.97492531 64.64448183 6 67.1875 C5.67 67.1875 5.34 67.1875 5 67.1875 C4.97513238 62.75838594 4.95706111 58.32930975 4.94506836 53.90014648 C4.94006445 52.3959075 4.93325927 50.89167332 4.92456055 49.38745117 C4.91232116 47.21531991 4.90673214 45.04325341 4.90234375 42.87109375 C4.89448853 40.91514282 4.89448853 40.91514282 4.88647461 38.91967773 C4.99854025 35.23548967 5.40625214 31.81778534 6 28.1875 C5.29875 27.919375 4.5975 27.65125 3.875 27.375 C0.8350176 26.1193551 -2.0727774 24.68514877 -5 23.1875 C-3.35 24.8375 -1.7 26.4875 0 28.1875 C-0.33 28.8475 -0.66 29.5075 -1 30.1875 C-2.83947337 28.40177748 -4.67157741 26.60947551 -6.5 24.8125 C-7.02464844 24.30460937 -7.54929687 23.79671875 -8.08984375 23.2734375 C-9.43153181 21.94917396 -10.71995815 20.57144135 -12 19.1875 C-12 18.5275 -12 17.8675 -12 17.1875 C-12.99 16.8575 -13.98 16.5275 -15 16.1875 C-14.67 15.5275 -14.34 14.8675 -14 14.1875 C-11.67843403 13.78020772 -9.3431213 13.44311323 -7 13.1875 C-7.04640625 12.58421875 -7.0928125 11.9809375 -7.140625 11.359375 C-7.43293247 4.88685245 -7.43293247 4.88685245 -5.375 1.5625 C-3 0.1875 -3 0.1875 0 0 Z M-4 3.1875 C-6.28062828 6.60844242 -6.21925007 7.86937222 -6.125 11.875 C-6.10695313 12.86886719 -6.08890625 13.86273438 -6.0703125 14.88671875 C-6.04710938 15.64597656 -6.02390625 16.40523437 -6 17.1875 C-5.34 17.1875 -4.68 17.1875 -4 17.1875 C-3.67 13.5575 -3.34 9.9275 -3 6.1875 C-2.01 5.8575 -1.02 5.5275 0 5.1875 C-1.32 4.5275 -2.64 3.8675 -4 3.1875 Z M-3 7.1875 C-3 10.4875 -3 13.7875 -3 17.1875 C-2.67 17.1875 -2.34 17.1875 -2 17.1875 C-2 13.8875 -2 10.5875 -2 7.1875 C-2.33 7.1875 -2.66 7.1875 -3 7.1875 Z M-1 8.1875 C-1 10.1675 -1 12.1475 -1 14.1875 C-0.34 14.1875 0.32 14.1875 1 14.1875 C0.67 12.2075 0.34 10.2275 0 8.1875 C-0.33 8.1875 -0.66 8.1875 -1 8.1875 Z M2 9.1875 C2 13.4775 2 17.7675 2 22.1875 C2.33 22.1875 2.66 22.1875 3 22.1875 C3 17.8975 3 13.6075 3 9.1875 C2.67 9.1875 2.34 9.1875 2 9.1875 Z M5 12.1875 C5 15.1575 5 18.1275 5 21.1875 C5.33 21.1875 5.66 21.1875 6 21.1875 C6 18.2175 6 15.2475 6 12.1875 C5.67 12.1875 5.34 12.1875 5 12.1875 Z M-9 15.1875 C-9.66 15.8475 -10.32 16.5075 -11 17.1875 C-9.02 18.1775 -9.02 18.1775 -7 19.1875 C-7 17.8675 -7 16.5475 -7 15.1875 C-7.66 15.1875 -8.32 15.1875 -9 15.1875 Z M-1 16.1875 C-2.54166642 17.56235532 -2.54166642 17.56235532 -4 19.1875 C-4 19.8475 -4 20.5075 -4 21.1875 C-1.525 22.1775 -1.525 22.1775 1 23.1875 C1 21.2075 1 19.2275 1 17.1875 C0.34 16.8575 -0.32 16.5275 -1 16.1875 Z M7 21.1875 C5.68 22.5075 4.36 23.8275 3 25.1875 C5.3015411 25.96552187 5.3015411 25.96552187 8 26.1875 C10.30504044 24.85596734 10.30504044 24.85596734 12 23.1875 C9.525 22.1975 9.525 22.1975 7 21.1875 Z M7 28.1875 C6.39375602 31.61110738 6.39375602 31.61110738 6.6875 35.375 C6.73261719 36.64730469 6.77773437 37.91960938 6.82421875 39.23046875 C6.88222656 40.20628906 6.94023438 41.18210937 7 42.1875 C10.24983135 41.09965032 10.24983135 41.09965032 13 39.1875 C13.07271741 36.83436445 13.08370868 34.47916332 13.0625 32.125 C13.05347656 30.83464844 13.04445313 29.54429688 13.03515625 28.21484375 C13.02355469 27.21582031 13.01195312 26.21679688 13 25.1875 C10.45243883 25.1875 8.89717139 26.68243081 7 28.1875 Z " fill="#4282FE" transform="translate(105,24.8125)"/>
<path d="M0 0 C0.17376354 4.58964887 0.30038943 9.17736309 0.38452148 13.76953125 C0.41960652 15.32944098 0.46729082 16.88912241 0.52807617 18.44824219 C1.01940979 31.37981268 1.01940979 31.37981268 -1.48388672 35.35839844 C-4.20233585 37.75143469 -6.56873213 38.85624404 -10 40 C-10.05490968 35.10579373 -10.05746673 30.21535201 -10.01220703 25.32104492 C-10.00411261 23.65764166 -10.01014439 21.99410573 -10.03076172 20.33081055 C-10.18832163 6.4613923 -10.18832163 6.4613923 -7.1875 2.77099609 C-4.94748226 1.35348487 -2.72787473 0 0 0 Z " fill="#F4F4F9" transform="translate(109,62)"/>
<path d="M0 0 C2.78812906 4.01900877 2.28751459 8.50763849 2.36328125 13.22265625 C2.73506983 16.23143936 2.73506983 16.23143936 5.54296875 17.87109375 C6.75919922 18.42990234 6.75919922 18.42990234 8 19 C5.94766315 21.2477975 4.99332739 22.0022242 2 23 C-0.36522558 22.07796291 -2.70401807 21.08301035 -5 20 C-4.34 19.34 -3.68 18.68 -3 18 C-3.3185177 15.89179203 -3.3185177 15.89179203 -4 14 C-4.45375 14.474375 -4.9075 14.94875 -5.375 15.4375 C-7 17 -7 17 -9 18 C-11.625 16.5625 -11.625 16.5625 -14 15 C-13.67 13.68 -13.34 12.36 -13 11 C-11.68 10.67 -10.36 10.34 -9 10 C-9 7.03 -9 4.06 -9 1 C-3.375 -1.125 -3.375 -1.125 0 0 Z " fill="#ACCAFE" transform="translate(75,49)"/>
<path d="M0 0 C0.66 0.33 1.32 0.66 2 1 C2.07451364 5.3049777 2.12877223 9.60960734 2.16479492 13.91503906 C2.17982196 15.37767075 2.20024955 16.84025782 2.22631836 18.30273438 C2.26297267 20.4128728 2.27978676 22.52241226 2.29296875 24.6328125 C2.3086792 25.90012207 2.32438965 27.16743164 2.34057617 28.47314453 C1.96871445 32.32397921 0.99949775 34.71168592 -1 38 C-2.8671875 39.42578125 -2.8671875 39.42578125 -4.875 40.3125 C-5.53242187 40.61800781 -6.18984375 40.92351562 -6.8671875 41.23828125 C-11.20952088 42.7891146 -15.22066858 43.11782327 -19.8125 43.0625 C-20.78832031 43.05347656 -21.76414062 43.04445312 -22.76953125 43.03515625 C-23.87361328 43.01775391 -23.87361328 43.01775391 -25 43 C-25.66 41.68 -26.32 40.36 -27 39 C-27.66 39 -28.32 39 -29 39 C-30.37280273 37.51879883 -30.37280273 37.51879883 -31.93359375 35.45703125 C-32.50013672 34.71259766 -33.06667969 33.96816406 -33.65039062 33.20117188 C-34.24013672 32.41291016 -34.82988281 31.62464844 -35.4375 30.8125 C-36.02337891 30.04357422 -36.60925781 29.27464844 -37.21289062 28.48242188 C-45 18.1850525 -45 18.1850525 -45 15 C-41.15115894 16.49866378 -39.56178331 18.63740609 -37.25 22 C-33.85039181 26.85019289 -30.25616276 31.45172745 -26.46875 36.00390625 C-25 38 -25 38 -25 40 C-22.41536498 39.71749338 -19.83268865 39.4243774 -17.25 39.125 C-16.52039063 39.04636719 -15.79078125 38.96773437 -15.0390625 38.88671875 C-11.28519941 38.44308038 -8.23107151 37.98111317 -5 36 C-0.14613311 28.9085349 -0.34380528 21.89130824 -0.25 13.5 C-0.22035156 12.200625 -0.19070312 10.90125 -0.16015625 9.5625 C-0.0898424 6.37493894 -0.03695232 3.18809318 0 0 Z " fill="#F9FBFE" transform="translate(97,66)"/>
<path d="M0 0 C6.875 1.875 6.875 1.875 8 3 C8.07179964 4.51928038 8.08392007 6.04167482 8.0625 7.5625 C8.05347656 8.38878906 8.04445313 9.21507813 8.03515625 10.06640625 C8.02355469 10.70449219 8.01195312 11.34257813 8 12 C7.360625 12.309375 6.72125 12.61875 6.0625 12.9375 C4.06389179 13.8345163 4.06389179 13.8345163 3 15 C4.32 15.66 5.64 16.32 7 17 C6.67 17.99 6.34 18.98 6 20 C2.7 18.02 -0.6 16.04 -4 14 C-4.46636518 18.42399193 -4.72495939 22.5969378 -4 27 C-1.68314698 29.57089392 0.77105315 30.82518228 4 32 C3.01 32.495 3.01 32.495 2 33 C-0.1640625 32.00390625 -0.1640625 32.00390625 -2.625 30.5625 C-3.44226563 30.08941406 -4.25953125 29.61632812 -5.1015625 29.12890625 C-5.72804688 28.75636719 -6.35453125 28.38382813 -7 28 C-7.16225719 25.24763726 -7.2809328 22.50482524 -7.375 19.75 C-7.42527344 18.97269531 -7.47554687 18.19539063 -7.52734375 17.39453125 C-7.58572811 15.11754109 -7.56875996 13.20839268 -7 11 C-4.03125 8.6875 -4.03125 8.6875 -1 7 C-0.02649222 3.3634269 -0.02649222 3.3634269 0 0 Z M6 4 C6 5.65 6 7.3 6 9 C6.33 9 6.66 9 7 9 C7 7.35 7 5.7 7 4 C6.67 4 6.34 4 6 4 Z M3 5 C3 7.31 3 9.62 3 12 C3.33 12 3.66 12 4 12 C4 9.69 4 7.38 4 5 C3.67 5 3.34 5 3 5 Z M-3 10 C-3.33 10.66 -3.66 11.32 -4 12 C-2.68 12.33 -1.36 12.66 0 13 C-0.33 12.01 -0.66 11.02 -1 10 C-1.66 10 -2.32 10 -3 10 Z " fill="#4282FE" transform="translate(33,69)"/>
<path d="M0 0 C3.07027091 2.99886926 3.25549631 3.91515925 3.5625 8.0625 C3.39190965 11.32996138 3.22823816 13.00645779 1.05859375 15.48828125 C-1.9909342 17.54251735 -4.29963589 18.625 -8 18.625 C-8.763125 18.295 -9.52625 17.965 -10.3125 17.625 C-11.67375 17.0990625 -11.67375 17.0990625 -13.0625 16.5625 C-15.3125 14.625 -15.3125 14.625 -16.25 10.8125 C-16.47515914 6.98479465 -16.152116 4.06428208 -14.3125 0.625 C-8.75424239 -3.20402191 -5.90455901 -2.45094902 0 0 Z M-13.3125 2.625 C-11.26150524 4.90123195 -11.26150524 4.90123195 -8.3125 6.625 C-4.56589693 6.15019289 -4.56589693 6.15019289 -1.3125 4.625 C-0.9825 3.965 -0.6525 3.305 -0.3125 2.625 C-5.76596881 -0.91238518 -7.85903119 -0.91238518 -13.3125 2.625 Z M-14.3125 4.625 C-14.3125 7.265 -14.3125 9.905 -14.3125 12.625 C-12.3325 13.615 -10.3525 14.605 -8.3125 15.625 C-8.3125 12.985 -8.3125 10.345 -8.3125 7.625 C-10.2925 6.635 -12.2725 5.645 -14.3125 4.625 Z M-6.3125 8.625 C-6.7699662 11.419402 -6.54667187 13.76810315 -6.3125 16.625 C-4.0025 15.305 -1.6925 13.985 0.6875 12.625 C0.6875 10.315 0.6875 8.005 0.6875 5.625 C-2.48205691 5.625 -3.90390121 6.59670628 -6.3125 8.625 Z " fill="#B4E4FF" transform="translate(148.3125,111.375)"/>
<path d="M0 0 C1.16402344 0.13148437 1.16402344 0.13148437 2.3515625 0.265625 C4.375 0.75 4.375 0.75 6.375 2.75 C6.5 5.875 6.5 5.875 6.375 8.75 C0.93 9.245 0.93 9.245 -4.625 9.75 C-2.315 10.08 -0.005 10.41 2.375 10.75 C2.375 11.08 2.375 11.41 2.375 11.75 C-4.86397912 12.23259861 -4.86397912 12.23259861 -8.1875 10.125 C-9.625 7.75 -9.625 7.75 -9.625 4.625 C-8.625 1.75 -8.625 1.75 -6.8515625 0.5546875 C-4.29385541 -0.36967682 -2.68466762 -0.34119522 0 0 Z " fill="#93C9FE" transform="translate(21.625,49.25)"/>
<path d="M0 0 C0 3.96 0 7.92 0 12 C-6.08823529 16.01823529 -6.08823529 16.01823529 -10.125 15.9375 C-13.24746744 14.91930409 -15.42000594 14.05021231 -18 12 C-18.48828125 8.86328125 -18.48828125 8.86328125 -18.3125 5.3125 C-18.26738281 4.13300781 -18.22226563 2.95351562 -18.17578125 1.73828125 C-18.11777344 0.83464844 -18.05976562 -0.06898438 -18 -1 C-10.36554168 -4.42234338 -7.52046246 -3.76023123 0 0 Z M-15 1 C-13.36290685 2.68864588 -13.36290685 2.68864588 -11 4 C-7.98266875 3.7586135 -5.70716958 3.35358479 -3 2 C-3 1.34 -3 0.68 -3 0 C-7.79194459 -2.73825405 -10.79996863 -2.60002689 -15 1 Z M-17 3 C-16.88455718 7.08564325 -16.88455718 7.08564325 -16 11 C-13.08158143 13.08632697 -13.08158143 13.08632697 -10 14 C-9.65418096 9.96875257 -9.65418096 9.96875257 -10 6 C-12.40859879 3.97170628 -13.83044309 3 -17 3 Z M-9 6 C-9 8.64 -9 11.28 -9 14 C-5.45481116 12.60240095 -5.45481116 12.60240095 -2 11 C-2 8.36 -2 5.72 -2 3 C-4.37220987 3 -6.92877733 4.94235438 -9 6 Z " fill="#B6E5FF" transform="translate(84,147)"/>
<path d="M0 0 C0.7734375 0.495 0.7734375 0.495 1.5625 1 C1.5625 3.64 1.5625 6.28 1.5625 9 C0.42361328 8.98259766 0.42361328 8.98259766 -0.73828125 8.96484375 C-1.73214844 8.95582031 -2.72601563 8.94679688 -3.75 8.9375 C-4.73613281 8.92589844 -5.72226563 8.91429688 -6.73828125 8.90234375 C-9.53713849 8.87670138 -9.53713849 8.87670138 -12.4375 10 C-13.4375 9 -13.4375 9 -13.53515625 7.15234375 C-13.50260417 5.1015625 -13.47005208 3.05078125 -13.4375 1 C-9.20368858 -1.70963931 -4.62909082 -1.89911418 0 0 Z " fill="#97CDFE" transform="translate(13.4375,82)"/>
<path d="M0 0 C1.13199353 0.9080162 2.25532363 1.82683826 3.375 2.75 C4.00148438 3.26046875 4.62796875 3.7709375 5.2734375 4.296875 C7.08312318 6.08199481 8.00117455 7.67949644 9 10 C9.66 10 10.32 10 11 10 C11.61875 10.680625 12.2375 11.36125 12.875 12.0625 C13.57625 12.701875 14.2775 13.34125 15 14 C17.21858253 13.86358623 17.21858253 13.86358623 19 13 C18.5155542 13.33555908 18.0311084 13.67111816 17.53198242 14.0168457 C15.22714216 17.00046602 15.52008399 20.10608358 15.48828125 23.73046875 C15.47033005 24.48088943 15.45237885 25.23131012 15.43388367 26.00447083 C15.37974813 28.3987569 15.34587584 30.79284331 15.3125 33.1875 C15.27932964 34.81187677 15.24484024 36.43622717 15.20898438 38.06054688 C15.1240203 42.04022056 15.05722535 46.0198347 15 50 C15.66 50.33 16.32 50.66 17 51 C14.625 52.5625 14.625 52.5625 12 54 C11.34 53.67 10.68 53.34 10 53 C10.48895752 52.16194824 10.97791504 51.32389648 11.48168945 50.46044922 C13.20273633 46.53793461 13.34583546 43.89739363 13.29296875 39.6328125 C13.28872391 38.95322479 13.28447906 38.27363708 13.28010559 37.57345581 C13.26344266 35.42355076 13.22581716 33.27461701 13.1875 31.125 C13.172437 29.6588678 13.15875143 28.19272076 13.14648438 26.7265625 C13.11614342 23.15037528 13.0574073 19.57626221 13 16 C12.67 24.91 12.34 33.82 12 43 C11.67 43 11.34 43 11 43 C11.01160156 42.19892822 11.02320312 41.39785645 11.03515625 40.57250977 C11.06484446 36.90150909 11.03289056 33.23345213 11 29.5625 C11.01933594 28.30244141 11.03867188 27.04238281 11.05859375 25.74414062 C10.95419943 19.08030295 10.61630284 14.8625464 6.03125 9.8125 C5.31517578 9.14992188 4.59910156 8.48734375 3.86132812 7.8046875 C1.47347712 5.48949933 0.66216994 3.22807845 0 0 Z " fill="#B5CEFE" transform="translate(85,51)"/>
<path d="M0 0 C2.34858092 2.34858092 2.34352521 2.9757732 2.4375 6.1875 C2.32511419 10.53542584 1.32092618 13.31872569 -1.44140625 16.67578125 C-4.21974045 19.03632083 -6.44717951 19.19032967 -10 19 C-13 17.625 -13 17.625 -15 15 C-15.49411329 11.04709364 -14.9279391 7.54763546 -12.87109375 4.1171875 C-8.64383936 -1.10694181 -6.44392816 -1.2657716 0 0 Z M-9 2 C-12.65083143 6.4024732 -13.45374191 9.32822615 -13 15 C-12.67 15 -12.34 15 -12 15 C-11.731875 13.783125 -11.46375 12.56625 -11.1875 11.3125 C-10.31505639 7.77878956 -9.07843061 5.0231718 -7 2 C-7.66 2 -8.32 2 -9 2 Z M-6.625 4.25 C-9.37777828 7.33435093 -9.37777828 7.33435093 -11 11 C-10.69196545 14.18522204 -10.69196545 14.18522204 -10 17 C-9.01 17.33 -8.02 17.66 -7 18 C-1.84041692 14.39318836 -1.84041692 14.39318836 1 9 C0.68873287 5.31796085 0.68873287 5.31796085 0 2 C-4.07005046 1.56613908 -4.07005046 1.56613908 -6.625 4.25 Z " fill="#88BEFE" transform="translate(136,70)"/>
<path d="M0 0 C2.56461806 3.49875047 2.20281686 7.04788973 2.125 11.25 C2.10695313 12.51328125 2.08890625 13.7765625 2.0703125 15.078125 C2.04710938 16.04234375 2.02390625 17.0065625 2 18 C1.67 18 1.34 18 1 18 C0.67 14.37 0.34 10.74 0 7 C0 10.63 0 14.26 0 18 C-0.66 17.67 -1.32 17.34 -2 17 C-2.37890625 14.3125 -2.37890625 14.3125 -2.5625 11 C-2.45431019 7.18265388 -2.45431019 7.18265388 -4 4 C-4.33 6.97 -4.66 9.94 -5 13 C-6.32 13.33 -7.64 13.66 -9 14 C-9 9.71 -9 5.42 -9 1 C-3 -1 -3 -1 0 0 Z " fill="#EFF4FE" transform="translate(75,49)"/>
<path d="M0 0 C2.3125 1 2.3125 1 4 3 C4.34228273 5.75456101 4.18321933 8.20590521 4 11 C1.3125 12.625 1.3125 12.625 -2 14 C-4.75 13.25 -4.75 13.25 -7 12 C-7.66 11.67 -8.32 11.34 -9 11 C-9 8.03 -9 5.06 -9 2 C-5.23085596 0.11542798 -3.99051989 -0.49881499 0 0 Z M-3 1 C-3.99 1.99 -4.98 2.98 -6 4 C-3.60280568 4.67958603 -3.60280568 4.67958603 -1 5 C-0.34 4.34 0.32 3.68 1 3 C-0.32 2.34 -1.64 1.68 -3 1 Z M-7 5 C-7 6.65 -7 8.3 -7 10 C-6.01 10.33 -5.02 10.66 -4 11 C-4 9.35 -4 7.7 -4 6 C-4.99 5.67 -5.98 5.34 -7 5 Z M-2 7 C-2.25030977 9.58380177 -2.25030977 9.58380177 -2 12 C-0.68 11.34 0.64 10.68 2 10 C2 8.35 2 6.7 2 5 C0.53774984 4.90754997 0.53774984 4.90754997 -2 7 Z " fill="#B5E5FF" transform="translate(30,0)"/>
<path d="M0 0 C3.08089673 2.77280706 4.68775452 5.06326356 6 9 C5.01 9 4.02 9 3 9 C2.67 12.96 2.34 16.92 2 21 C-0.31 21.66 -2.62 22.32 -5 23 C-5 19.7 -5 16.4 -5 13 C-3.68 12.34 -2.36 11.68 -1 11 C-0.67 10.01 -0.34 9.02 0 8 C0.66 7.67 1.32 7.34 2 7 C1.34 4.69 0.68 2.38 0 0 Z " fill="#C0D4FE" transform="translate(51,82)"/>
<path d="M0 0 C0.5775 0.309375 1.155 0.61875 1.75 0.9375 C2.18126685 6.19895553 2.18126685 6.19895553 1.75 8.9375 C-0.4375 11 -0.4375 11 -3.25 11.9375 C-6.7841312 11.68506206 -8.25316126 10.93539249 -11.25 8.9375 C-11.89453562 3.86178198 -11.89453562 3.86178198 -11.25 0.9375 C-7.1289462 -2.84013265 -4.67766927 -2.20889938 0 0 Z M-6.25 -0.0625 C-6.91 0.5975 -7.57 1.2575 -8.25 1.9375 C-6.36683841 3.04586423 -6.36683841 3.04586423 -4.25 3.9375 C-3.59 3.6075 -2.93 3.2775 -2.25 2.9375 C-2.58 1.9475 -2.91 0.9575 -3.25 -0.0625 C-4.24 -0.0625 -5.23 -0.0625 -6.25 -0.0625 Z M-10.25 2.9375 C-10.25 4.5875 -10.25 6.2375 -10.25 7.9375 C-8.27 8.9275 -8.27 8.9275 -6.25 9.9375 C-6.25 8.2875 -6.25 6.6375 -6.25 4.9375 C-7.57 4.2775 -8.89 3.6175 -10.25 2.9375 Z M-4.25 4.9375 C-4.25 6.5875 -4.25 8.2375 -4.25 9.9375 C-2.93 9.2775 -1.61 8.6175 -0.25 7.9375 C-0.25 6.6175 -0.25 5.2975 -0.25 3.9375 C-2.3245356 3.7884288 -2.3245356 3.7884288 -4.25 4.9375 Z " fill="#B4E4FF" transform="translate(48.25,10.0625)"/>
<path d="M0 0 C0.99 0.66 1.98 1.32 3 2 C3.64453562 7.07571802 3.64453562 7.07571802 3 10 C0.59577868 12.20386955 -0.78345182 13.0368651 -4.0625 12.9375 C-6.73136969 11.64611144 -8.20412315 10.37312298 -10 8 C-10.5625 4.9375 -10.5625 4.9375 -10 2 C-6.57844382 -1.03052118 -4.28677561 -1.4665285 0 0 Z M-4 0 C-4.99 0.99 -5.98 1.98 -7 3 C-4.09926819 3.67801034 -4.09926819 3.67801034 -1 4 C-0.34 3.34 0.32 2.68 1 2 C-1.475 1.01 -1.475 1.01 -4 0 Z M-8 4 C-8 5.65 -8 7.3 -8 9 C-6.68 9.33 -5.36 9.66 -4 10 C-4.33 8.35 -4.66 6.7 -5 5 C-5.99 4.67 -6.98 4.34 -8 4 Z M-2 6 C-2 7.32 -2 8.64 -2 10 C-0.68 9.67 0.64 9.34 2 9 C2 7.35 2 5.7 2 4 C0.53774984 3.90754997 0.53774984 3.90754997 -2 6 Z " fill="#7DB6FE" transform="translate(19,24)"/>
<path d="M0 0 C0.10794277 2.26979665 0.18556176 4.54105196 0.25 6.8125 C0.29640625 8.07707031 0.3428125 9.34164062 0.390625 10.64453125 C0 14 0 14 -1.890625 15.94921875 C-4 17 -4 17 -6 17 C-6.10794277 14.73020335 -6.18556176 12.45894804 -6.25 10.1875 C-6.29640625 8.92292969 -6.3428125 7.65835938 -6.390625 6.35546875 C-6 3 -6 3 -4.109375 1.05078125 C-2 0 -2 0 0 0 Z " fill="#FDFDFF" transform="translate(84,70)"/>
<path d="M0 0 C0.99 0.66 1.98 1.32 3 2 C3.64234124 7.05843729 3.64234124 7.05843729 3 10 C0.8125 12.0625 0.8125 12.0625 -2 13 C-4.81582552 12.86591307 -6.42957957 12.35405406 -8.8125 10.875 C-10.745016 7.82365894 -10.50026853 5.50187969 -10 2 C-6.62132729 -1.0890722 -4.2799856 -1.4642056 0 0 Z M-5 1 C-5.66 1.66 -6.32 2.32 -7 3 C-5.02 3.99 -5.02 3.99 -3 5 C-2.01 4.01 -1.02 3.02 0 2 C-2.39719432 1.32041397 -2.39719432 1.32041397 -5 1 Z M-8 5 C-7.67 6.65 -7.34 8.3 -7 10 C-6.01 10.33 -5.02 10.66 -4 11 C-4 9.35 -4 7.7 -4 6 C-5.32 5.67 -6.64 5.34 -8 5 Z M-3 6 C-3 7.65 -3 9.3 -3 11 C-1.35 10.34 0.3 9.68 2 9 C2 7.35 2 5.7 2 4 C0.15953612 4 -1.39629594 5.17228177 -3 6 Z " fill="#B5E5FF" transform="translate(142,30)"/>
<path d="M0 0 C0.66 0.33 1.32 0.66 2 1 C2.28784504 4.05115745 2.4299258 6.95827494 2 10 C-0.1875 12.1875 -0.1875 12.1875 -3 13 C-5.6875 12.25 -5.6875 12.25 -8 11 C-8.66 10.67 -9.32 10.34 -10 10 C-10 7.03 -10 4.06 -10 1 C-5.62241031 -1.18879485 -4.5551674 -1.08927916 0 0 Z M-4 0 C-5.32 0.99 -6.64 1.98 -8 3 C-5.09926819 3.67801034 -5.09926819 3.67801034 -2 4 C-1.34 3.34 -0.68 2.68 0 2 C-1.32 1.34 -2.64 0.68 -4 0 Z M-9 4 C-8.67 5.65 -8.34 7.3 -8 9 C-7.01 9.33 -6.02 9.66 -5 10 C-5.33 8.35 -5.66 6.7 -6 5 C-6.99 4.67 -7.98 4.34 -9 4 Z M-3 6 C-3.25030977 8.58380177 -3.25030977 8.58380177 -3 11 C-1.68 10.34 -0.36 9.68 1 9 C1 7.35 1 5.7 1 4 C-0.46225016 3.90754997 -0.46225016 3.90754997 -3 6 Z " fill="#B3E3FF" transform="translate(161,56)"/>
<path d="M0 0 C2.375 0.8125 2.375 0.8125 5.375 2.8125 C6.15402622 9.82373596 6.15402622 9.82373596 3.75 12.875 C0.56796594 14.13106608 -1.36712952 13.73320253 -4.625 12.8125 C-7.63117269 9.80632731 -7.22085316 6.98868402 -7.625 2.8125 C-3.35227273 -0.23944805 -3.35227273 -0.23944805 0 0 Z M-2.625 1.8125 C-3.285 2.4725 -3.945 3.1325 -4.625 3.8125 C-2.645 4.8025 -2.645 4.8025 -0.625 5.8125 C0.365 4.8225 1.355 3.8325 2.375 2.8125 C-0.02219432 2.13291397 -0.02219432 2.13291397 -2.625 1.8125 Z M-5.625 5.8125 C-5.295 7.4625 -4.965 9.1125 -4.625 10.8125 C-3.635 11.1425 -2.645 11.4725 -1.625 11.8125 C-1.625 10.1625 -1.625 8.5125 -1.625 6.8125 C-2.945 6.4825 -4.265 6.1525 -5.625 5.8125 Z M-0.625 6.8125 C-0.625 8.4625 -0.625 10.1125 -0.625 11.8125 C1.025 11.1525 2.675 10.4925 4.375 9.8125 C4.375 8.1625 4.375 6.5125 4.375 4.8125 C2.53453612 4.8125 0.97870406 5.98478177 -0.625 6.8125 Z " fill="#B4E4FF" transform="translate(152.625,0.1875)"/>
<path d="M0 0 C1.48253267 0.61697319 2.96095174 1.24383896 4.4375 1.875 C5.67306641 2.39707031 5.67306641 2.39707031 6.93359375 2.9296875 C9 4 9 4 10 6 C10.07033769 7.87379605 10.0843022 9.75001102 10.0625 11.625 C10.05347656 12.62789062 10.04445313 13.63078125 10.03515625 14.6640625 C10.02355469 15.43492187 10.01195312 16.20578125 10 17 C6.40271127 15.66386419 3.01159358 14.40394461 0 12 C-0.48828125 9.08203125 -0.48828125 9.08203125 -0.3125 5.8125 C-0.26738281 4.72582031 -0.22226563 3.63914062 -0.17578125 2.51953125 C-0.11777344 1.68808594 -0.05976562 0.85664062 0 0 Z M2 3 C2 5.64 2 8.28 2 11 C3.98 11.99 5.96 12.98 8 14 C8 11.36 8 8.72 8 6 C6.02 5.01 4.04 4.02 2 3 Z " fill="#518FFE" transform="translate(7,114)"/>
<path d="M0 0 C1.32 0.33 2.64 0.66 4 1 C4 1.66 4 2.32 4 3 C5.32 3 6.64 3 8 3 C9.66666667 3 11.33333333 3 13 3 C13 2.01 13 1.02 13 0 C14.32 0.33 15.64 0.66 17 1 C15.71034824 2.37562854 14.37310707 3.70766393 13 5 C12.34 5 11.68 5 11 5 C11 5.66 11 6.32 11 7 C11.66 7 12.32 7 13 7 C12.67 7.99 12.34 8.98 12 10 C11.88457803 11.24076302 11.88457803 11.24076302 13.5 12.5625 C13.995 13.036875 14.49 13.51125 15 14 C14.67 14.66 14.34 15.32 14 16 C12.16052663 14.21427748 10.32842259 12.42197551 8.5 10.625 C7.71302734 9.86316406 7.71302734 9.86316406 6.91015625 9.0859375 C5.56846819 7.76167396 4.28004185 6.38394135 3 5 C3 4.34 3 3.68 3 3 C2.01 2.67 1.02 2.34 0 2 C0 1.34 0 0.68 0 0 Z " fill="#5691FE" transform="translate(90,39)"/>
<path d="M0 0 C6.75334324 1.95096582 6.75334324 1.95096582 9 5 C9.29296875 7.69921875 9.29296875 7.69921875 9.1875 10.6875 C9.16042969 11.68136719 9.13335937 12.67523438 9.10546875 13.69921875 C9.07066406 14.45847656 9.03585938 15.21773437 9 16 C8.22140625 15.68289062 7.4428125 15.36578125 6.640625 15.0390625 C4.09352692 13.9840719 4.09352692 13.9840719 1.75 13.375 C0 12 0 12 -0.8125 8.125 C-1.04506604 5.21792445 -1.03927905 2.77141079 0 0 Z M1 2 C1 4.64 1 7.28 1 10 C2.98 10.99 4.96 11.98 7 13 C7 10.36 7 7.72 7 5 C5.02 4.01 3.04 3.02 1 2 Z " fill="#4384FF" transform="translate(133,114)"/>
<path d="M0 0 C6.75 2.875 6.75 2.875 9 4 C9 7.96 9 11.92 9 16 C4 14 4 14 0 12 C0 8.04 0 4.08 0 0 Z M1 3 C1.11544282 7.08564325 1.11544282 7.08564325 2 11 C4.91841857 13.08632697 4.91841857 13.08632697 8 14 C8.34581904 9.96875257 8.34581904 9.96875257 8 6 C5.59140121 3.97170628 4.16955691 3 1 3 Z " fill="#4182FF" transform="translate(66,147)"/>
<path d="M0 0 C-0.99 0.66 -1.98 1.32 -3 2 C-3.33792536 4.61677492 -3.48886089 7.00936392 -3.51171875 9.6328125 C-3.52966995 10.38464813 -3.54762115 11.13648376 -3.56611633 11.91110229 C-3.62035781 14.31567756 -3.65415792 16.72005285 -3.6875 19.125 C-3.72066102 20.75393417 -3.75514955 22.3828419 -3.79101562 24.01171875 C-3.87609162 28.00766846 -3.94283578 32.00355746 -4 36 C-3.34 36.33 -2.68 36.66 -2 37 C-4.375 38.5625 -4.375 38.5625 -7 40 C-7.66 39.67 -8.32 39.34 -9 39 C-8.51104248 38.17097168 -8.02208496 37.34194336 -7.51831055 36.48779297 C-5.81443629 32.5737316 -5.61337738 29.37401096 -5.70703125 25.1953125 C-5.71127609 24.4713327 -5.71552094 23.74735291 -5.71989441 23.00143433 C-5.73657028 20.70889713 -5.77419919 18.41726754 -5.8125 16.125 C-5.82756129 14.56251278 -5.84124716 13.00001165 -5.85351562 11.4375 C-5.88643707 7.62465495 -5.93813998 3.81248089 -6 0 C-2.25 -1.125 -2.25 -1.125 0 0 Z " fill="#7EAAFE" transform="translate(104,65)"/>
<path d="M0 0 C0.99 0.33 1.98 0.66 3 1 C3.34703629 4.72742678 3.53444601 8.28560021 3 12 C-1.27906977 16 -1.27906977 16 -5 16 C-4.67 15.01 -4.34 14.02 -4 13 C-0.9375 11.8125 -0.9375 11.8125 2 11 C2 9.35 2 7.7 2 6 C-0.64 6 -3.28 6 -6 6 C-6 5.34 -6 4.68 -6 4 C-4.02 3.34 -2.04 2.68 0 2 C0 1.34 0 0.68 0 0 Z " fill="#BBE4FF" transform="translate(22,114)"/>
<path d="M0 0 C2.475 0.99 2.475 0.99 5 2 C4.401875 2.268125 3.80375 2.53625 3.1875 2.8125 C0.90204582 4.05317513 -0.44064279 4.92085706 -2 7 C-2.9934389 9.96003468 -2.9934389 9.96003468 -3 13 C-1.68681738 14.89958081 -1.68681738 14.89958081 0 16 C-4.75 15.25 -4.75 15.25 -7 13 C-7 6.16066482 -7 6.16066482 -4.58984375 3.36328125 C-2.9375 2 -2.9375 2 0 0 Z M-3 3 C-2.67 3.66 -2.34 4.32 -2 5 C-1.67 4.34 -1.34 3.68 -1 3 C-1.66 3 -2.32 3 -3 3 Z M-5 6 C-4 9 -4 9 -4 9 Z M-6 9 C-5 12 -5 12 -5 12 Z " fill="#95CAFE" transform="translate(97,2)"/>
<path d="M0 0 C0 3.3 0 6.6 0 10 C-2.64 8.68 -5.28 7.36 -8 6 C-6.72879117 2.18637351 -4.19078006 0 0 0 Z " fill="#CAD9FE" transform="translate(45,97)"/>
<path d="M0 0 C0.33 0 0.66 0 1 0 C1.07347656 0.95712891 1.07347656 0.95712891 1.1484375 1.93359375 C1.22320312 2.75988281 1.29796875 3.58617187 1.375 4.4375 C1.44460937 5.26121094 1.51421875 6.08492187 1.5859375 6.93359375 C1.72257812 7.61550781 1.85921875 8.29742187 2 9 C2.66 9.33 3.32 9.66 4 10 C2.36587557 11.70840281 1.13093906 12.93453047 -1 14 C-3.625 12.5625 -3.625 12.5625 -6 11 C-5.67 9.68 -5.34 8.36 -5 7 C-3.68 6.67 -2.36 6.34 -1 6 C-0.67 4.02 -0.34 2.04 0 0 Z " fill="#C6D9FE" transform="translate(67,53)"/>
<path d="M0 0 C2.96175123 0.61277612 4.38058783 1.25372522 7 3 C7.40843923 5.71203652 7.13336867 8.2437142 7 11 C2.25 9.125 2.25 9.125 0 8 C0 5.36 0 2.72 0 0 Z M2 2 C2 3.65 2 5.3 2 7 C2.99 7.33 3.98 7.66 5 8 C5 6.35 5 4.7 5 3 C4.01 2.67 3.02 2.34 2 2 Z " fill="#508FFE" transform="translate(21,3)"/>
<path d="M0 0 C2.02045442 0.60183749 4.02111039 1.27306096 6 2 C7.4783226 4.95664519 7.06032783 7.74229737 7 11 C2.25 9.125 2.25 9.125 0 8 C0 5.36 0 2.72 0 0 Z M1 2 C1.33 3.65 1.66 5.3 2 7 C2.99 7.33 3.98 7.66 5 8 C4.67 6.35 4.34 4.7 4 3 C3.01 2.67 2.02 2.34 1 2 Z " fill="#5593FE" transform="translate(151,58)"/>
<path d="M0 0 C5.875 1.875 5.875 1.875 7 3 C7.14115161 5.67058851 7.04247107 8.32432238 7 11 C4.08482708 9.92598892 2.22189824 9.22189824 0 7 C-0.125 3.375 -0.125 3.375 0 0 Z M2 3 C2.33 4.65 2.66 6.3 3 8 C3.99 8.33 4.98 8.66 6 9 C6 7.35 6 5.7 6 4 C4.68 3.67 3.36 3.34 2 3 Z " fill="#4F8EFE" transform="translate(132,32)"/>
<path d="M0 0 C2.91517292 1.07401108 4.77810176 1.77810176 7 4 C7.125 7.625 7.125 7.625 7 11 C4.03824877 10.38722388 2.61941217 9.74627478 0 8 C-0.40843923 5.28796348 -0.13336867 2.7562858 0 0 Z M1 2 C1 3.65 1 5.3 1 7 C2.98 7.99 2.98 7.99 5 9 C5 7.35 5 5.7 5 4 C3.68 3.34 2.36 2.68 1 2 Z " fill="#5492FE" transform="translate(37,11)"/>
<path d="M0 0 C5.875 1.875 5.875 1.875 7 3 C7.14115161 5.67058851 7.04247107 8.32432238 7 11 C4.625 10.375 4.625 10.375 2 9 C0.56962239 5.79867869 0 3.50492555 0 0 Z M2 3 C2.33 4.65 2.66 6.3 3 8 C3.99 8.33 4.98 8.66 6 9 C6 7.35 6 5.7 6 4 C4.68 3.67 3.36 3.34 2 3 Z " fill="#5190FE" transform="translate(145,3)"/>
<path d="M0 0 C6.75334324 1.95096582 6.75334324 1.95096582 9 5 C9.29296875 7.69921875 9.29296875 7.69921875 9.1875 10.6875 C9.16042969 11.68136719 9.13335937 12.67523438 9.10546875 13.69921875 C9.07066406 14.45847656 9.03585938 15.21773437 9 16 C8.67 16 8.34 16 8 16 C7.99742187 15.31292969 7.99484375 14.62585938 7.9921875 13.91796875 C7.87388923 11.16161906 7.68408386 8.67572041 7 6 C4.11547725 3.97343617 4.11547725 3.97343617 1 3 C0.67 2.01 0.34 1.02 0 0 Z " fill="#5B98FE" transform="translate(133,114)"/>
<path d="M0 0 C1.65 0.99 3.3 1.98 5 3 C2.94766315 5.2477975 1.99332739 6.0022242 -1 7 C-1.99 6.01 -2.98 5.02 -4 4 C-2.68 2.68 -1.36 1.36 0 0 Z " fill="#FAFCFF" transform="translate(78,65)"/>
<path d="M0 0 C6.75 2.875 6.75 2.875 9 4 C9 7.3 9 10.6 9 14 C8.67 14 8.34 14 8 14 C7.979375 12.7625 7.95875 11.525 7.9375 10.25 C7.63015797 7.5415484 7.45241985 6.39586737 5.375 4.578125 C3.22998537 3.34385415 3.22998537 3.34385415 0 2 C0 1.34 0 0.68 0 0 Z " fill="#5896FE" transform="translate(66,147)"/>
<path d="M0 0 C1.485 0.99 1.485 0.99 3 2 C3.40843923 4.71203652 3.13336867 7.2437142 3 10 C2.01 10 1.02 10 0 10 C0 6.7 0 3.4 0 0 Z " fill="#6199FE" transform="translate(70,52)"/>
<path d="M0 0 C1.99097846 2.98646769 2.94124926 5.59687262 4 9 C3.01 9.495 3.01 9.495 2 10 C-1.07692308 4.58461538 -1.07692308 4.58461538 -0.6875 1.625 C-0.460625 1.08875 -0.23375 0.5525 0 0 Z " fill="#E6F0FF" transform="translate(49,72)"/>
<path d="M0 0 C0.66 0.33 1.32 0.66 2 1 C2 1.66 2 2.32 2 3 C2.66 3.33 3.32 3.66 4 4 C1.625 5.5625 1.625 5.5625 -1 7 C-1.66 6.67 -2.32 6.34 -3 6 C-2.01 4.02 -1.02 2.04 0 0 Z " fill="#96BAFF" transform="translate(98,98)"/>
<path d="M0 0 C-0.33 1.32 -0.66 2.64 -1 4 C-2.32 4.33 -3.64 4.66 -5 5 C-5 4.01 -5 3.02 -5 2 C-2 0 -2 0 0 0 Z " fill="#EEF9FF" transform="translate(84,70)"/>
<path d="M0 0 C0.33 0 0.66 0 1 0 C1.33292585 4.24480464 1.43885872 6.35542625 -1 9.9375 C-1.66 10.618125 -2.32 11.29875 -3 12 C-3.66 11.67 -4.32 11.34 -5 11 C-4.360625 10.29875 -3.72125 9.5975 -3.0625 8.875 C-0.83613898 5.77158767 -0.34919057 3.75379861 0 0 Z " fill="#73ADFF" transform="translate(102,5)"/>
<path d="M0 0 C2.31 0 4.62 0 7 0 C7 0.33 7 0.66 7 1 C4.69 1 2.38 1 0 1 C0 0.67 0 0.34 0 0 Z " fill="#4081FF" transform="translate(4,92)"/>
<path d="M0 0 C2 1 2 1 2 1 Z " fill="#4081FF" transform="translate(11,91)"/>
<path d="M0 0 C2 1 2 1 2 1 Z " fill="#4081FF" transform="translate(24,59)"/>
<path d="" fill="#4081FF" transform="translate(0,0)"/>
</svg>
