<?xml version="1.0" encoding="UTF-8"?>
<svg version="1.1" xmlns="http://www.w3.org/2000/svg" width="158" height="187">
<path d="M0 0 C7.45076963 0.01042066 13.10893562 4.19160146 19.3125 7.9375 C20.40884766 8.58396484 21.50519531 9.23042969 22.63476562 9.89648438 C30.67009403 14.67009403 30.67009403 14.67009403 33 17 C33.07114069 18.58056822 33.08408733 20.16407261 33.0625 21.74609375 C33.32535609 24.95051706 33.50538592 26.48090418 35.74609375 28.83251953 C38.10098637 30.41554202 40.47862745 31.76145639 43 33.0625 C43.845625 33.53365234 44.69125 34.00480469 45.5625 34.49023438 C47.11584204 35.35527662 48.6776628 36.20538515 50.25 37.03540039 C52 38 52 38 53 39 C53.07205511 40.68608966 53.08386068 42.37500659 53.0625 44.0625 C53.05347656 44.98160156 53.04445312 45.90070312 53.03515625 46.84765625 C53.01775391 47.91306641 53.01775391 47.91306641 53 49 C54.5159375 48.9071875 54.5159375 48.9071875 56.0625 48.8125 C60.33236223 49.01582677 64.81662434 49.81662434 68 53 C68.3062656 56.44960678 68.27834009 59.91346231 68.3125 63.375 C68.34150391 64.34695312 68.37050781 65.31890625 68.40039062 66.3203125 C68.40876953 67.25359375 68.41714844 68.186875 68.42578125 69.1484375 C68.44765503 70.43500244 68.44765503 70.43500244 68.4699707 71.74755859 C68 74 68 74 66.13452148 75.77124023 C63.5798166 77.241883 61.67944669 77.49477324 58.75 77.6875 C57.85796875 77.75324219 56.9659375 77.81898437 56.046875 77.88671875 C55.03367188 77.94279297 55.03367188 77.94279297 54 78 C53.67 80.31 53.34 82.62 53 85 C53.66386719 84.95359375 54.32773438 84.9071875 55.01171875 84.859375 C59.22847321 84.68701131 62.24597943 84.65315054 66.125 86.4375 C68.50959885 89.69645176 68.73080388 91.89442605 68.46875 95.87109375 C68 98 68 98 66.125 100.5625 C61.72195437 102.58790099 57.76862544 102.33334081 53 102 C53 104.31 53 106.62 53 109 C51.34155273 109.67651367 51.34155273 109.67651367 49 110 C46.42211914 108.8918457 46.42211914 108.8918457 43.53515625 107.17578125 C42.48779297 106.55896484 41.44042969 105.94214844 40.36132812 105.30664062 C39.27271484 104.64857422 38.18410156 103.99050781 37.0625 103.3125 C35.97775391 102.67376953 34.89300781 102.03503906 33.77539062 101.37695312 C24.00920444 95.57246509 24.00920444 95.57246509 20 92 C19.51171875 89.421875 19.51171875 89.421875 19.6875 86.75 C19.73261719 85.85796875 19.77773437 84.9659375 19.82421875 84.046875 C19.88222656 83.37140625 19.94023438 82.6959375 20 82 C18.02 81.505 18.02 81.505 16 81 C15.67 86.28 15.34 91.56 15 97 C16.4540625 97.84820312 17.908125 98.69640625 19.40625 99.5703125 C41.203125 112.28515625 41.203125 112.28515625 63 125 C60.23639456 127.90698316 57.30501928 129.69713955 53.8125 131.6875 C52.72582031 132.31011719 51.63914063 132.93273437 50.51953125 133.57421875 C49.68808594 134.04472656 48.85664063 134.51523438 48 135 C50.96213574 137.30465234 54.02152757 139.27590448 57.25 141.1875 C58.14203125 141.71730469 59.0340625 142.24710938 59.953125 142.79296875 C60.96632812 143.39044922 60.96632812 143.39044922 62 144 C60.69204145 147.92387566 59.2626032 148.2734936 55.69140625 150.265625 C54.56428223 150.90113281 53.4371582 151.53664062 52.27587891 152.19140625 C51.0381186 152.87766307 49.80032479 153.56385949 48.5625 154.25 C47.29548282 154.96121019 46.02905048 155.67346319 44.76318359 156.38671875 C42.80541612 157.48951416 40.84723038 158.59149924 38.88708496 159.69006348 C32.26540294 163.4013487 25.69455516 167.19731176 19.125 171 C18.04581299 171.62036133 16.96662598 172.24072266 15.85473633 172.87988281 C11.36754781 175.45992038 6.89130065 178.04751068 2.4765625 180.75 C1.83058105 181.13929688 1.18459961 181.52859375 0.51904297 181.9296875 C-1.08334563 182.8991702 -2.67514566 183.88610093 -4.265625 184.875 C-7.72131063 186.2967678 -9.38929869 185.85419832 -13 185 C-15.65527344 183.74755859 -15.65527344 183.74755859 -18.359375 182.1484375 C-19.890177 181.25342529 -19.890177 181.25342529 -21.4519043 180.34033203 C-22.54027588 179.69177246 -23.62864746 179.04321289 -24.75 178.375 C-26.48818918 177.35485215 -28.22638748 176.33471944 -29.96513367 175.31552124 C-31.77146327 174.25532014 -33.57548555 173.19126654 -35.37939453 172.12695312 C-40.01905147 169.39486481 -44.68908539 166.71659165 -49.35888672 164.03637695 C-54.58054218 161.03796558 -59.79047933 158.01942852 -65 155 C-65.8544873 154.5064502 -66.70897461 154.01290039 -67.58935547 153.50439453 C-69.77274244 152.24013942 -71.95007458 150.96623975 -74.125 149.6875 C-74.74076904 149.33252441 -75.35653809 148.97754883 -75.9909668 148.61181641 C-77.36227412 147.7973924 -78.68812382 146.9070563 -80 146 C-80 145.34 -80 144.68 -80 144 C-75.38 141.36 -70.76 138.72 -66 136 C-69.35875049 132.64124951 -72.78621895 130.76980246 -76.91796875 128.5 C-77.60503906 128.005 -78.29210937 127.51 -79 127 C-79 126.01 -79 125.02 -79 124 C-76.8762207 122.40600586 -76.8762207 122.40600586 -73.92578125 120.71484375 C-72.86552734 120.10189453 -71.80527344 119.48894531 -70.71289062 118.85742188 C-69.02969727 117.90706055 -69.02969727 117.90706055 -67.3125 116.9375 C-66.20970703 116.30005859 -65.10691406 115.66261719 -63.97070312 115.00585938 C-59.38846721 112.37834162 -54.95520945 109.85813292 -50 108 C-50.495 107.01 -50.495 107.01 -51 106 C-50.93039063 104.40091797 -50.93039063 104.40091797 -50.859375 102.76953125 C-50.73754315 98.36182905 -50.80310079 95.25366411 -52 91 C-55.99477119 87.55932521 -60.02091396 85.77972894 -65 84 C-65.26233625 79.95957327 -65.42150491 75.92133519 -65.5625 71.875 C-65.63791016 70.73289062 -65.71332031 69.59078125 -65.79101562 68.4140625 C-66.0091031 60.07827449 -66.0091031 60.07827449 -63.02685547 56.89160156 C-60.73888046 55.35772771 -58.51230883 54.12185759 -56 53 C-55.01 52.505 -55.01 52.505 -54 52 C-53.5305745 49.48205021 -53.5305745 49.48205021 -53.375 46.5625 C-53.30023438 45.57378906 -53.22546875 44.58507813 -53.1484375 43.56640625 C-53.06049969 42.04600783 -53 40.5229394 -53 39 C-53 35.33333333 -53 31.66666667 -53 28 C-45.71428571 23.42857143 -45.71428571 23.42857143 -41 24 C-40.505 22.515 -40.505 22.515 -40 21 C-37.54617212 19.21977193 -35.79352837 17.98088984 -33 17 C-28.36039847 17.74233625 -25.47982373 19.9295673 -22 23 C-21.0925 22.484375 -20.185 21.96875 -19.25 21.4375 C-15.72989938 19.88053242 -15.39570401 19.76967246 -12 21 C-10.06095034 21.97764934 -8.14509158 23.00215114 -6.25 24.0625 C-5.26515625 24.61035156 -4.2803125 25.15820312 -3.265625 25.72265625 C-2.51796875 26.14417969 -1.7703125 26.56570312 -1 27 C-1.00523682 26.21761963 -1.01047363 25.43523926 -1.01586914 24.62915039 C-1.03657106 21.10694167 -1.04963838 17.5847457 -1.0625 14.0625 C-1.07087891 12.83080078 -1.07925781 11.59910156 -1.08789062 10.33007812 C-1.09111328 9.16025391 -1.09433594 7.99042969 -1.09765625 6.78515625 C-1.10289307 5.70113525 -1.10812988 4.61711426 -1.11352539 3.50024414 C-1 1 -1 1 0 0 Z M-23 26 C-23.96035356 28.98638979 -23.98590186 31.87961187 -24 35 C-24.01417969 36.0003125 -24.02835938 37.000625 -24.04296875 38.03125 C-24.06009344 40.68900151 -24.0447028 43.34266712 -24 46 C-30.625 50 -30.625 50 -34 50 C-35.02297922 50.97648017 -36.01904252 51.98131338 -37 53 C-41.27089337 56.06628242 -41.27089337 56.06628242 -44.0625 55.8125 C-46 55 -46 55 -48 53.875 C-50.27659369 52.6363198 -50.27659369 52.6363198 -54 54 C-58.455 56.475 -58.455 56.475 -63 59 C-63 66.92 -63 74.84 -63 83 C-59.04 84.98 -55.08 86.96 -51 89 C-51 82.4 -51 75.8 -51 69 C-48.69 69.66 -46.38 70.32 -44 71 C-44 69.02 -44 67.04 -44 65 C-42.02 65.66 -40.04 66.32 -38 67 C-37.67 65.02 -37.34 63.04 -37 61 C-32.38346545 62.68038244 -28.21151741 64.98250221 -23.9375 67.375 C-23.16543213 67.80546631 -22.39336426 68.23593262 -21.59790039 68.67944336 C4.12854004 83.12854004 4.12854004 83.12854004 7 86 C7.45459858 88.65463121 7.70243238 91.32189138 8 94 C9.65614657 94.38218767 11.32457024 94.71395102 13 95 C15.37322622 92.62677378 14.82833903 88.06095266 14.96069336 84.87426758 C14.8253036 80.68717685 14.20191115 79.19061734 11.13671875 76.296875 C8.82143528 74.81562642 6.42213405 73.59677613 3.94140625 72.41796875 C1 71 1 71 0 69 C-0.01142746 66.09349055 0.03331968 63.20529783 0.10546875 60.30078125 C0.12951162 57.58179233 0.14299711 54.86285882 0.15649414 52.14379883 C0.1770702 50.26489716 0.21725893 48.38610224 0.27758789 46.50805664 C1.01313465 35.51887976 1.01313465 35.51887976 -3.61083984 26.16943359 C-10.66563615 21.91254313 -16.40901211 19.9948777 -23 26 Z M57.3125 73.4375 C56.50425781 73.53933594 55.69601563 73.64117187 54.86328125 73.74609375 C53.94095703 73.87177734 53.94095703 73.87177734 53 74 C53 74.66 53 75.32 53 76 C59.31268603 76.37552165 59.31268603 76.37552165 65 74 C61.90521121 72.96840374 60.47368607 73.02517138 57.3125 73.4375 Z " fill="#DDE8FF" transform="translate(89,0)"/>
<path d="M0 0 C4.61649423 1.68036776 8.7885949 3.98235968 13.0625 6.375 C13.83529297 6.80619141 14.60808594 7.23738281 15.40429688 7.68164062 C21.65769011 11.1957377 27.84229493 14.82113871 34 18.5 C35.29949585 19.2741626 35.29949585 19.2741626 36.62524414 20.06396484 C37.42953857 20.54816895 38.23383301 21.03237305 39.0625 21.53125 C39.77535156 21.95986328 40.48820312 22.38847656 41.22265625 22.83007812 C43 24 43 24 45 26 C45.26991906 28.68839385 45.08737357 31.29141936 45 34 C45.55719727 34.27432861 46.11439453 34.54865723 46.68847656 34.83129883 C64.86813642 44.02289492 82.64775375 54.33471694 100 65 C97.36923129 67.99999941 94.25820168 69.72382055 90.8125 71.6875 C89.72582031 72.31011719 88.63914063 72.93273437 87.51953125 73.57421875 C86.68808594 74.04472656 85.85664063 74.51523438 85 75 C87.96213574 77.30465234 91.02152757 79.27590448 94.25 81.1875 C95.14203125 81.71730469 96.0340625 82.24710937 96.953125 82.79296875 C97.62859375 83.19128906 98.3040625 83.58960938 99 84 C97.69204145 87.92387566 96.2626032 88.2734936 92.69140625 90.265625 C91.56428223 90.90113281 90.4371582 91.53664063 89.27587891 92.19140625 C88.0381186 92.87766307 86.80032479 93.56385949 85.5625 94.25 C84.29548282 94.96121019 83.02905048 95.67346319 81.76318359 96.38671875 C79.80541612 97.48951416 77.84723038 98.59149924 75.88708496 99.69006348 C69.26540294 103.4013487 62.69455516 107.19731176 56.125 111 C55.04581299 111.62036133 53.96662598 112.24072266 52.85473633 112.87988281 C48.36754781 115.45992038 43.89130065 118.04751068 39.4765625 120.75 C38.50759033 121.33394531 38.50759033 121.33394531 37.51904297 121.9296875 C35.91665437 122.8991702 34.32485434 123.88610093 32.734375 124.875 C29.27868937 126.2967678 27.61070131 125.85419832 24 125 C21.34472656 123.74755859 21.34472656 123.74755859 18.640625 122.1484375 C17.62009033 121.5517627 16.59955566 120.95508789 15.5480957 120.34033203 C14.45972412 119.69177246 13.37135254 119.04321289 12.25 118.375 C10.51181082 117.35485215 8.77361252 116.33471944 7.03486633 115.31552124 C5.22853673 114.25532014 3.42451445 113.19126654 1.62060547 112.12695312 C-3.01905147 109.39486481 -7.68908539 106.71659165 -12.35888672 104.03637695 C-17.58054218 101.03796558 -22.79047933 98.01942852 -28 95 C-28.8544873 94.5064502 -29.70897461 94.01290039 -30.58935547 93.50439453 C-32.77274244 92.24013942 -34.95007458 90.96623975 -37.125 89.6875 C-37.74076904 89.33252441 -38.35653809 88.97754883 -38.9909668 88.61181641 C-40.36227412 87.7973924 -41.68812382 86.9070563 -43 86 C-43 85.34 -43 84.68 -43 84 C-38.38 81.36 -33.76 78.72 -29 76 C-32.35875049 72.64124951 -35.78621895 70.76980246 -39.91796875 68.5 C-40.60503906 68.005 -41.29210938 67.51 -42 67 C-42 66.01 -42 65.02 -42 64 C-39.8762207 62.421875 -39.8762207 62.421875 -36.92578125 60.75 C-35.86552734 60.1415625 -34.80527344 59.533125 -33.71289062 58.90625 C-32.59076172 58.2771875 -31.46863281 57.648125 -30.3125 57 C-29.20970703 56.3709375 -28.10691406 55.741875 -26.97070312 55.09375 C-24.90702747 53.91664437 -22.84063721 52.74427673 -20.77075195 51.578125 C-17.98798972 50.0472619 -17.98798972 50.0472619 -15.45385742 48.234375 C-13 47 -13 47 -10.51977539 47.13037109 C-7.66745369 48.11476891 -5.27845724 49.37154616 -2.68359375 50.9140625 C-1.67103516 51.51089844 -0.65847656 52.10773438 0.38476562 52.72265625 C1.43341797 53.35042969 2.48207031 53.97820312 3.5625 54.625 C5.09487305 55.53185547 5.09487305 55.53185547 6.65820312 56.45703125 C10.8823335 58.95686361 15.10313759 61.46185611 19.31201172 63.98730469 C20.37307129 64.61797852 21.43413086 65.24865234 22.52734375 65.8984375 C23.4824585 66.46997559 24.43757324 67.04151367 25.42163086 67.63037109 C27.67356581 68.82659826 29.51027527 69.54025699 32 70 C32 68.02 32 66.04 32 64 C33.98 64.66 35.96 65.32 38 66 C40.90755043 46.4786444 40.90755043 46.4786444 35.80377197 28.30432129 C29.55678207 21.86192238 20.63119245 18.60373391 12.43139648 15.40014648 C7.71801882 13.4769006 2.91596157 11.30206958 -1 8 C-1.6875 4.1875 -1.6875 4.1875 -1 1 C-0.67 0.67 -0.34 0.34 0 0 Z " fill="#DFE8FF" transform="translate(52,60)"/>
<path d="M0 0 C4.10013281 0.57416581 6.7330252 1.87398821 10.1875 4.125 C17.84111455 8.97613228 25.68961848 13.47029258 33.55307007 17.96905518 C35.25996418 18.94572516 36.96593809 19.92400281 38.671875 20.90234375 C39.6731543 21.47460693 40.67443359 22.04687012 41.70605469 22.63647461 C44 24 44 24 45 25 C45.08855161 27.6662603 45.11524673 30.30647114 45.09765625 32.97265625 C45.0962413 33.77029892 45.09482635 34.56794159 45.09336853 35.38975525 C45.08775316 37.94737435 45.07519812 40.50490718 45.0625 43.0625 C45.05748698 44.79231645 45.05292373 46.52213426 45.04882812 48.25195312 C45.03777875 52.50133553 45.02050386 56.75065312 45 61 C42.83125748 60.49396008 41.00032373 60.00016187 39 59 C39 60.98 39 62.96 39 65 C34.53888058 64.46721909 31.43335767 63.38637846 27.5859375 61.0859375 C26.57660156 60.48910156 25.56726563 59.89226562 24.52734375 59.27734375 C23.48707031 58.64957031 22.44679688 58.02179688 21.375 57.375 C19.84939453 56.46814453 19.84939453 56.46814453 18.29296875 55.54296875 C16.23617985 54.32036546 14.18116614 53.09477086 12.12792969 51.86621094 C8.91880544 49.95155704 5.70096064 48.05287635 2.4765625 46.1640625 C1.04304443 45.32415771 1.04304443 45.32415771 -0.41943359 44.46728516 C-2.57476837 43.2417826 -4.78237523 42.10881238 -7 41 C-7 28.79 -7 16.58 -7 4 C-2 5 -2 5 0 6 C0 4.02 0 2.04 0 0 Z " fill="#3F80FF" transform="translate(45,65)"/>
<path d="M0 0 C3.37462715 0.54723683 5.08235 1.0549 8 3 C8.10183594 3.79792969 8.20367187 4.59585937 8.30859375 5.41796875 C8.76914763 8.27977108 8.76914763 8.27977108 11.72265625 9.80078125 C12.82480469 10.29964844 13.92695312 10.79851563 15.0625 11.3125 C16.16722656 11.82425781 17.27195312 12.33601562 18.41015625 12.86328125 C19.26480469 13.23839844 20.11945313 13.61351562 21 14 C21.33 13.34 21.66 12.68 22 12 C24.9719385 13.12451727 27.33440687 14.22293791 30 16 C30.36076355 18.78408813 30.36076355 18.78408813 30.34057617 22.37744141 C30.34123329 23.35811333 30.34123329 23.35811333 30.34190369 24.3585968 C30.33981081 26.52322075 30.3164578 28.6870736 30.29296875 30.8515625 C30.28737453 32.35085629 30.28310361 33.85015556 30.28010559 35.34945679 C30.26864298 39.29845277 30.239164 43.24711852 30.20599365 47.19598389 C30.17532305 51.22436047 30.16160672 55.25279035 30.14648438 59.28125 C30.11429532 67.18765167 30.06308227 75.09378477 30 83 C25.63236264 81.60658059 22.03235464 79.9722081 18.125 77.5625 C14.64056669 75.47443388 11.3364722 73.59348371 7.5 72.25 C2.39570719 70.42703828 2.39570719 70.42703828 0 68 C-0.48101807 65.05769348 -0.48101807 65.05769348 -0.45410156 61.41723633 C-0.45468567 60.75355545 -0.45526978 60.08987457 -0.45587158 59.40608215 C-0.45308663 57.21419819 -0.42197875 55.02367734 -0.390625 52.83203125 C-0.38316399 51.31174971 -0.37747039 49.79145854 -0.37347412 48.27116394 C-0.35820654 44.27110204 -0.31891582 40.27162176 -0.2746582 36.27178955 C-0.23372927 32.18973662 -0.21546824 28.10758963 -0.1953125 24.02539062 C-0.15242197 16.01666027 -0.08415786 8.0084025 0 0 Z " fill="#F0F6FF" transform="translate(89,3)"/>
<path d="M0 0 C7.45076963 0.01042066 13.10893562 4.19160146 19.3125 7.9375 C20.40884766 8.58396484 21.50519531 9.23042969 22.63476562 9.89648438 C30.67009403 14.67009403 30.67009403 14.67009403 33 17 C33.24050903 19.86001587 33.24050903 19.86001587 33.22705078 23.56103516 C33.22734283 24.23432358 33.22763489 24.907612 33.22793579 25.6013031 C33.22654047 27.83068654 33.21097016 30.05973732 33.1953125 32.2890625 C33.19158308 33.83319923 33.18873577 35.37733833 33.18673706 36.92147827 C33.17909499 40.98875443 33.15944168 45.05588811 33.1373291 49.12310791 C33.11688296 53.2721565 33.10773799 57.42122807 33.09765625 61.5703125 C33.07619625 69.71360711 33.04205349 77.85678584 33 86 C31.35 86.33 29.7 86.66 28 87 C28.66 86.67 29.32 86.34 30 86 C30.0314769 77.33297395 30.02543543 68.66702168 29.97153378 60.000103 C29.94768225 55.9755564 29.93674141 51.95183823 29.95532227 47.92724609 C29.97278061 44.04284205 29.9563039 40.15992614 29.91632271 36.27570343 C29.90703075 34.79417742 29.90995383 33.31252266 29.92530632 31.83104706 C30.39381329 23.97338435 30.39381329 23.97338435 27.38162231 17.18322754 C25.28097375 15.86817568 25.28097375 15.86817568 22 15 C21.67 15.99 21.34 16.98 21 18 C19.03037886 17.15071382 17.07451187 16.26948192 15.125 15.375 C14.03445312 14.88773438 12.94390625 14.40046875 11.8203125 13.8984375 C9 12 9 12 8.0546875 8.9765625 C7.70664063 7.99429687 7.35859375 7.01203125 7 6 C4.69 5.01 2.38 4.02 0 3 C0 24.78 0 46.56 0 69 C-0.33 69 -0.66 69 -1 69 C-1 55.8 -1 42.6 -1 29 C-3.475 28.01 -3.475 28.01 -6 27 C-7.17994978 26.29253011 -8.34821944 25.56496041 -9.5 24.8125 C-12.74197586 22.76327993 -12.74197586 22.76327993 -15.6875 23.125 C-18.94859977 24.34837523 -18.94859977 24.34837523 -22 26 C-22.70604446 27.80614022 -22.70604446 27.80614022 -22.75 29.9375 C-22.81574219 30.73542969 -22.88148437 31.53335937 -22.94921875 32.35546875 C-23.04456061 35.03925338 -23.04456061 35.03925338 -22.76953125 37.86328125 C-22.56382762 40.73148853 -22.44741637 43.17418614 -23 46 C-25.32998509 48.4745665 -27.89840579 49.69257616 -31 51 C-33.61338607 52.25681925 -36.0477506 53.64369754 -38.5 55.1875 C-42 57 -42 57 -44.1875 56.875 C-45.4798659 56.25109922 -46.74921719 55.57856533 -48 54.875 C-49.91443689 53.85359886 -49.91443689 53.85359886 -51.8125 54.125 C-53.89273921 54.95709568 -55.69146091 55.93760459 -57.625 57.0625 C-61 59 -61 59 -63 59 C-63 66.92 -63 74.84 -63 83 C-61.35 83.66 -59.7 84.32 -58 85 C-55.61911331 86.26182389 -53.32382349 87.63304501 -51 89 C-51.495 89.99 -51.495 89.99 -52 91 C-58.435 87.535 -58.435 87.535 -65 84 C-65.24343843 79.9547145 -65.42141001 75.92405865 -65.5625 71.875 C-65.67561523 70.16183594 -65.67561523 70.16183594 -65.79101562 68.4140625 C-66.0091031 60.07827449 -66.0091031 60.07827449 -63.02685547 56.89160156 C-60.73888046 55.35772771 -58.51230883 54.12185759 -56 53 C-55.01 52.505 -55.01 52.505 -54 52 C-53.5305745 49.48205021 -53.5305745 49.48205021 -53.375 46.5625 C-53.30023438 45.57378906 -53.22546875 44.58507813 -53.1484375 43.56640625 C-53.06049969 42.04600783 -53 40.5229394 -53 39 C-53 35.33333333 -53 31.66666667 -53 28 C-45.71428571 23.42857143 -45.71428571 23.42857143 -41 24 C-40.67 23.01 -40.34 22.02 -40 21 C-37.54617212 19.21977193 -35.79352837 17.98088984 -33 17 C-28.36039847 17.74233625 -25.47982373 19.9295673 -22 23 C-21.0925 22.484375 -20.185 21.96875 -19.25 21.4375 C-15.72989938 19.88053242 -15.39570401 19.76967246 -12 21 C-10.06095034 21.97764934 -8.14509158 23.00215114 -6.25 24.0625 C-5.26515625 24.61035156 -4.2803125 25.15820312 -3.265625 25.72265625 C-2.14414063 26.35494141 -2.14414063 26.35494141 -1 27 C-1.00523682 26.21761963 -1.01047363 25.43523926 -1.01586914 24.62915039 C-1.03657106 21.10694167 -1.04963838 17.5847457 -1.0625 14.0625 C-1.07087891 12.83080078 -1.07925781 11.59910156 -1.08789062 10.33007812 C-1.09111328 9.16025391 -1.09433594 7.99042969 -1.09765625 6.78515625 C-1.10289307 5.70113525 -1.10812988 4.61711426 -1.11352539 3.50024414 C-1 1 -1 1 0 0 Z " fill="#98C1FF" transform="translate(89,0)"/>
<path d="M0 0 C4.4227639 1.47425463 7.46467585 2.67468656 11.34375 4.9765625 C12.33689209 5.56155518 13.33003418 6.14654785 14.35327148 6.74926758 C15.39169189 7.36825928 16.4301123 7.98725098 17.5 8.625 C19.64683332 9.89243893 21.79396762 11.15936818 23.94140625 12.42578125 C24.97797363 13.0388916 26.01454102 13.65200195 27.08251953 14.28369141 C31.91731713 17.12792799 36.79869307 19.88758971 41.68359375 22.64453125 C44 24 44 24 45 25 C45.08631874 26.34267413 45.10706473 27.68974322 45.09765625 29.03515625 C45.09443359 29.84404297 45.09121094 30.65292969 45.08789062 31.48632812 C45.07532227 32.7615332 45.07532227 32.7615332 45.0625 34.0625 C45.05798828 34.91650391 45.05347656 35.77050781 45.04882812 36.65039062 C45.03700373 38.76695663 45.01906769 40.88348685 45 43 C40.99051247 42.41205623 38.15688559 41.15063548 34.68359375 39.0859375 C33.67103516 38.48910156 32.65847656 37.89226562 31.61523438 37.27734375 C30.56658203 36.64957031 29.51792969 36.02179688 28.4375 35.375 C27.41591797 34.77042969 26.39433594 34.16585937 25.34179688 33.54296875 C23.27457178 32.31958885 21.2086558 31.09399423 19.14404297 29.86621094 C15.9257632 27.95593523 12.70178757 26.05593625 9.47265625 24.1640625 C8.5175415 23.60412598 7.56242676 23.04418945 6.57836914 22.46728516 C4.42404631 21.24131411 2.21704522 20.10852261 0 19 C0 12.73 0 6.46 0 0 Z " fill="#3F80FF" transform="translate(38,87)"/>
<path d="M0 0 C4.61649423 1.68036776 8.7885949 3.98235968 13.0625 6.375 C13.83529297 6.80619141 14.60808594 7.23738281 15.40429688 7.68164062 C21.65769011 11.1957377 27.84229493 14.82113871 34 18.5 C34.86633057 19.0161084 35.73266113 19.5322168 36.62524414 20.06396484 C37.42953857 20.54816895 38.23383301 21.03237305 39.0625 21.53125 C39.77535156 21.95986328 40.48820312 22.38847656 41.22265625 22.83007812 C43 24 43 24 45 26 C45.26991906 28.68839385 45.08737357 31.29141936 45 34 C45.99 34.495 45.99 34.495 47 35 C46.84152588 35.55268555 46.68305176 36.10537109 46.51977539 36.67480469 C45.95067733 39.22064305 45.7896572 41.59699445 45.68359375 44.203125 C45.62075195 45.67265625 45.62075195 45.67265625 45.55664062 47.171875 C45.51732422 48.18765625 45.47800781 49.2034375 45.4375 50.25 C45.37272461 51.796875 45.37272461 51.796875 45.30664062 53.375 C45.20074318 55.9165387 45.09866557 58.45817196 45 61 C39.125 60.125 39.125 60.125 38 59 C38.18609857 57.03655555 38.41800233 55.07743308 38.66796875 53.12109375 C39.33638535 45.19036466 39.8990881 37.56834236 37 30 C30.41899961 22.8862636 21.20073681 19.2606265 12.43139648 15.51293945 C7.77238262 13.45873035 2.93178513 11.2807106 -1 8 C-1.6875 4.1875 -1.6875 4.1875 -1 1 C-0.67 0.67 -0.34 0.34 0 0 Z " fill="#BFD2FF" transform="translate(52,60)"/>
<path d="M0 0 C7.45076963 0.01042066 13.10893562 4.19160146 19.3125 7.9375 C20.40884766 8.58396484 21.50519531 9.23042969 22.63476562 9.89648438 C30.67009403 14.67009403 30.67009403 14.67009403 33 17 C33.24050903 19.86001587 33.24050903 19.86001587 33.22705078 23.56103516 C33.22734283 24.23432358 33.22763489 24.907612 33.22793579 25.6013031 C33.22654047 27.83068654 33.21097016 30.05973732 33.1953125 32.2890625 C33.19158308 33.83319923 33.18873577 35.37733833 33.18673706 36.92147827 C33.17909499 40.98875443 33.15944168 45.05588811 33.1373291 49.12310791 C33.11688296 53.2721565 33.10773799 57.42122807 33.09765625 61.5703125 C33.07619625 69.71360711 33.04205349 77.85678584 33 86 C30.525 86.495 30.525 86.495 28 87 C28.66 86.67 29.32 86.34 30 86 C30.0314769 77.33297395 30.02543543 68.66702168 29.97153378 60.000103 C29.94768225 55.9755564 29.93674141 51.95183823 29.95532227 47.92724609 C29.97278061 44.04284205 29.9563039 40.15992614 29.91632271 36.27570343 C29.90703075 34.79417742 29.90995383 33.31252266 29.92530632 31.83104706 C30.39381329 23.97338435 30.39381329 23.97338435 27.38162231 17.18322754 C25.28097375 15.86817568 25.28097375 15.86817568 22 15 C21.67 15.99 21.34 16.98 21 18 C19.03037886 17.15071382 17.07451187 16.26948192 15.125 15.375 C14.03445312 14.88773438 12.94390625 14.40046875 11.8203125 13.8984375 C9 12 9 12 8.0546875 8.9765625 C7.70664063 7.99429687 7.35859375 7.01203125 7 6 C4.69 5.01 2.38 4.02 0 3 C0 24.78 0 46.56 0 69 C-0.33 69 -0.66 69 -1 69 C-1 55.8 -1 42.6 -1 29 C-2.65 28.34 -4.3 27.68 -6 27 C-7.17994978 26.29253011 -8.34821944 25.56496041 -9.5 24.8125 C-12.73277027 22.76733972 -12.73277027 22.76733972 -15.625 23.125 C-18.10574652 24.03895924 -20.56968455 24.95843623 -23 26 C-22 23 -22 23 -19.1875 21.25 C-15.74432794 19.89973645 -15.29509622 19.82615921 -12 21 C-10.06095034 21.97764934 -8.14509158 23.00215114 -6.25 24.0625 C-5.26515625 24.61035156 -4.2803125 25.15820312 -3.265625 25.72265625 C-2.51796875 26.14417969 -1.7703125 26.56570312 -1 27 C-1.00785522 25.82642944 -1.00785522 25.82642944 -1.01586914 24.62915039 C-1.03657106 21.10694167 -1.04963838 17.5847457 -1.0625 14.0625 C-1.07087891 12.83080078 -1.07925781 11.59910156 -1.08789062 10.33007812 C-1.09272461 8.5753418 -1.09272461 8.5753418 -1.09765625 6.78515625 C-1.10551147 5.15912476 -1.10551147 5.15912476 -1.11352539 3.50024414 C-1 1 -1 1 0 0 Z " fill="#528FFF" transform="translate(89,0)"/>
<path d="M0 0 C4.04025743 1.49660041 7.6649547 3.41616549 11.40234375 5.5546875 C12.30262047 6.06891769 12.30262047 6.06891769 13.22108459 6.59353638 C14.48511088 7.31650302 15.74823428 8.04105031 17.01049805 8.76708984 C18.92591639 9.86834012 20.84453389 10.96384128 22.76367188 12.05859375 C29.63701031 15.99509597 29.63701031 15.99509597 33 18 C34.11270264 18.56831543 35.22540527 19.13663086 36.37182617 19.72216797 C39 22 39 22 39.68115234 25.75878906 C39.68020715 27.26140264 39.64657124 28.76423498 39.5859375 30.265625 C39.57744781 31.05902283 39.56895813 31.85242065 39.56021118 32.66986084 C39.52668692 35.1979698 39.4514198 37.72285963 39.375 40.25 C39.34489867 41.96609968 39.31752314 43.68224949 39.29296875 45.3984375 C39.22690014 49.60019409 39.1233937 53.79955181 39 58 C36.83125748 57.49396008 35.00032373 57.00016187 33 56 C33 57.98 33 59.96 33 62 C32.67 62 32.34 62 32 62 C32.13353882 60.48817139 32.13353882 60.48817139 32.26977539 58.94580078 C34.46597332 41.22496667 34.46597332 41.22496667 30.57324219 24.50585938 C26.82062547 20.93937245 22.25264718 19.33807668 17.37890625 17.80859375 C13.45810084 16.4759062 10.00014811 14.45759176 6.4375 12.375 C5.46478149 11.88652588 5.46478149 11.88652588 4.47241211 11.38818359 C2.68359375 10.3984375 2.68359375 10.3984375 0 8 C-0.55034204 5.13167457 -0.31873213 2.95214028 0 0 Z " fill="#7EA9FF" transform="translate(51,68)"/>
<path d="M0 0 C8.37053179 2.51928627 18.24634865 6.12758311 24 13 C26.14937922 19.43924543 25.13033117 26.4257234 24 33 C4.92493947 23.92493947 4.92493947 23.92493947 0 19 C-0.08651611 17.58429877 -0.10704904 16.164405 -0.09765625 14.74609375 C-0.09443359 13.89208984 -0.09121094 13.03808594 -0.08789062 12.15820312 C-0.07951172 11.26037109 -0.07113281 10.36253906 -0.0625 9.4375 C-0.05798828 8.53580078 -0.05347656 7.63410156 -0.04882812 6.70507812 C-0.03700225 4.46998686 -0.0205222 2.23502563 0 0 Z " fill="#B4E6FF" transform="translate(92,12)"/>
<path d="M0 0 C11.15351217 5.3236932 21.81963007 11.39166783 32.51416016 17.57519531 C36.32057273 19.75691048 40.15720893 21.88317375 44 24 C44.33 21.36 44.66 18.72 45 16 C45.33 16 45.66 16 46 16 C46 25.24 46 34.48 46 44 C45.67 44 45.34 44 45 44 C45.03367676 43.27409668 45.06735352 42.54819336 45.10205078 41.80029297 C45.12271283 36.0033798 45.12271283 36.0033798 42.31933594 31.17675781 C39.90556623 29.6214552 37.46863515 28.35757284 34.875 27.125 C32.97208488 26.13390876 31.06976357 25.14167676 29.16796875 24.1484375 C28.16685059 23.64280273 27.16573242 23.13716797 26.13427734 22.61621094 C20.72551835 19.82714842 15.46840236 16.77203843 10.1875 13.75 C8.22344439 12.63923027 6.25867033 11.52972931 4.29296875 10.421875 C3.4630542 9.95362305 2.63313965 9.48537109 1.77807617 9.00292969 C1.19131104 8.67196289 0.6045459 8.34099609 0 8 C0 5.36 0 2.72 0 0 Z " fill="#5790FF" transform="translate(38,79)"/>
<path d="M0 0 C4.19415187 2.69624049 6.31673935 5.30458872 8 10 C8.49274714 13.11351215 8.61664565 15.89915329 8 19 C5.9375 21.625 5.9375 21.625 3 23 C-1.34229071 23.07754091 -3.34203707 22.5233796 -6.75 19.8125 C-9.81199959 15.98500051 -11.70487835 12.80762008 -12.5 7.9375 C-11.82284993 3.95924331 -10.04581147 2.53817623 -7 0 C-4.22339666 -1.38830167 -2.95033814 -0.89196269 0 0 Z " fill="#E9F1FF" transform="translate(148,18)"/>
<path d="M0 0 C2.48996037 2.75914528 2.76557787 3.50514424 3 7.0625 C2.75317293 10.39740802 2.46457236 11.37240955 0.3125 14.0625 C-5.38946766 16.91348383 -9.68359787 17.10499544 -15.625 15.1875 C-19.47611789 13.77388211 -19.47611789 13.77388211 -20.6875 12.5625 C-20.890625 10.3828125 -20.890625 10.3828125 -20.9375 7.6875 C-20.96328125 6.80320312 -20.9890625 5.91890625 -21.015625 5.0078125 C-20.6875 2.5625 -20.6875 2.5625 -19.359375 0.8046875 C-13.99968587 -3.17751143 -5.8542045 -2.28214752 0 0 Z M-18.6875 10.5625 C-15.73585376 13.65536186 -15.73585376 13.65536186 -11.69921875 14.765625 C-6.8157821 14.86411448 -3.70672823 14.67416057 0.3125 11.5625 C-0.3475 11.2325 -1.0075 10.9025 -1.6875 10.5625 C-2.6775 10.8925 -3.6675 11.2225 -4.6875 11.5625 C-6.33121491 11.65579934 -7.97864677 11.69245144 -9.625 11.6875 C-10.90697266 11.69136719 -10.90697266 11.69136719 -12.21484375 11.6953125 C-14.51430852 11.57180254 -16.48390348 11.20670687 -18.6875 10.5625 Z " fill="#B2E4FF" transform="translate(20.6875,59.4375)"/>
<path d="M0 0 C1.734375 0.6640625 1.734375 0.6640625 3.75 1.625 C7.18448639 3.01248273 7.61141792 3.15692738 11.25 1.6875 C12.1575 1.130625 13.065 0.57375 14 0 C15.32 0 16.64 0 18 0 C18 2.64 18 5.28 18 8 C17.34 8 16.68 8 16 8 C16 6.02 16 4.04 16 2 C15.67 2.33 15.34 2.66 15 3 C15.05814958 4.45955445 15.14626365 5.91797587 15.25 7.375 C15.2890625 9.83203125 15.2890625 9.83203125 15 12 C12.5776532 14.10361696 11.21754366 15 8 15 C8.03255208 12.94921875 8.06510417 10.8984375 8.09765625 8.84765625 C8.20561184 6.98267859 8.20561184 6.98267859 7 6 C7 9.63 7 13.26 7 17 C6.0925 16.484375 5.185 15.96875 4.25 15.4375 C1.29650597 13.85021425 1.29650597 13.85021425 -0.9375 14.0625 C-2.91538065 14.96153666 -4.74442795 15.97680892 -6.625 17.0625 C-10 19 -10 19 -12 19 C-12 26.92 -12 34.84 -12 43 C-10.35 43.66 -8.7 44.32 -7 45 C-4.61911331 46.26182389 -2.32382349 47.63304501 0 49 C-0.33 49.66 -0.66 50.32 -1 51 C-5.29 48.69 -9.58 46.38 -14 44 C-14.24343843 39.9547145 -14.42141001 35.92405865 -14.5625 31.875 C-14.63791016 30.73289062 -14.71332031 29.59078125 -14.79101562 28.4140625 C-15.0091031 20.07827449 -15.0091031 20.07827449 -12.02685547 16.89160156 C-9.73888046 15.35772771 -7.51230883 14.12185759 -5 13 C-4.34 12.67 -3.68 12.34 -3 12 C-2.60786962 9.44508177 -2.60786962 9.44508177 -2.5 6.5 C-2.34375 3.46875 -2.34375 3.46875 -2 1 C-1.34 0.67 -0.68 0.34 0 0 Z " fill="#D1EEFF" transform="translate(38,40)"/>
<path d="M0 0 C3.3125 1.3125 3.3125 1.3125 6 4 C7.00842006 7.87853869 7.02435398 11.12452745 6 15 C3.80702001 18.02419015 1.69664063 19.40357715 -2 20 C-5.85559553 18.84769029 -8.53438607 17.16600871 -12 15 C-12 11.37 -12 7.74 -12 4 C-4.23913043 -0.86956522 -4.23913043 -0.86956522 0 0 Z " fill="#A2D5FF" transform="translate(48,24)"/>
<path d="M0 0 C5.65962144 -0.34650743 9.03888782 0.51944391 14 3 C16.3720435 5.3720435 15.28108556 11.19167055 15.3125 14.375 C15.34150391 15.34695312 15.37050781 16.31890625 15.40039062 17.3203125 C15.40876953 18.25359375 15.41714844 19.186875 15.42578125 20.1484375 C15.44036377 21.00614746 15.45494629 21.86385742 15.4699707 22.74755859 C15 25 15 25 13.13452148 26.77124023 C10.5798166 28.241883 8.67944669 28.49477324 5.75 28.6875 C4.85796875 28.75324219 3.9659375 28.81898437 3.046875 28.88671875 C2.37140625 28.92410156 1.6959375 28.96148437 1 29 C0.67 28.34 0.34 27.68 0 27 C5.445 26.01 5.445 26.01 11 25 C8.463125 25.0928125 8.463125 25.0928125 5.875 25.1875 C1.14392497 25.1935889 -1.97612258 24.68258495 -6 22 C-6.66 21.34 -7.32 20.68 -8 20 C-7.625 16.375 -7.625 16.375 -7 13 C-6.175 13.495 -5.35 13.99 -4.5 14.5 C0.56305077 16.6698789 4.53701424 16.62884743 9.9375 15.25 C12.11868898 14.19520442 12.11868898 14.19520442 12.8125 12.1875 C13.01901924 9.77810884 13.06713945 7.41702011 13 5 C8.60748167 2.97944157 4.84659077 1.59104765 0 1 C0 0.67 0 0.34 0 0 Z " fill="#4B89FF" transform="translate(142,49)"/>
<path d="M0 0 C0.33 0 0.66 0 1 0 C0.96777344 1.22976563 0.93554688 2.45953125 0.90234375 3.7265625 C0.58794498 12.41771878 0.58794498 12.41771878 3.578125 20.25 C5.97265272 21.81087733 8.36946435 22.87820612 11 24 C12.88382727 25.04812118 14.7347609 26.14433984 16.58911133 27.24365234 C21.10400292 30.37417688 21.10400292 30.37417688 26 32 C26.33 26.39 26.66 20.78 27 15 C27.33 15 27.66 15 28 15 C28 28.53 28 42.06 28 56 C27.67 56 27.34 56 27 56 C26.690625 54.88625 26.38125 53.7725 26.0625 52.625 C25.17673517 49.2054845 25.17673517 49.2054845 24 47 C24.66 47 25.32 47 26 47 C26.27211583 43.75645217 26.10901336 41.07685862 25 38 C21.90927824 35.14285302 18.3678954 33.38129742 14.625 31.5 C13.65304688 30.97664063 12.68109375 30.45328125 11.6796875 29.9140625 C8.15897915 28.03699976 4.78920694 26.26306898 1 25 C1 27.31 1 29.62 1 32 C0.67 32 0.34 32 0 32 C0 21.44 0 10.88 0 0 Z " fill="#FBFEFF" transform="translate(90,12)"/>
<path d="M0 0 C5.16585217 1.99876415 9.95588978 4.47396444 14.8125 7.125 C15.69615234 7.57359375 16.57980469 8.0221875 17.49023438 8.484375 C19.94039017 9.83905573 21.99452263 11.0434648 24 13 C24.80196427 16.01746763 24.49857926 17.84572303 24 21 C20.77410427 20.35087845 18.32294435 19.1878983 15.48828125 17.53125 C14.64845703 17.04269531 13.80863281 16.55414063 12.94335938 16.05078125 C11.64108398 15.28314453 11.64108398 15.28314453 10.3125 14.5 C9.43271484 13.98824219 8.55292969 13.47648437 7.64648438 12.94921875 C1.15603258 9.15603258 1.15603258 9.15603258 0 8 C-0.14115161 5.32941149 -0.04247107 2.67567762 0 0 Z " fill="#B6E6FF" transform="translate(92,48)"/>
<path d="M0 0 C5.04736106 1.79530119 9.59390552 4.44991365 14.25 7.0625 C15.07757813 7.52205078 15.90515625 7.98160156 16.7578125 8.45507812 C22.86294063 11.86294063 22.86294063 11.86294063 24 13 C24.14115161 15.67058851 24.04247107 18.32432238 24 21 C20.77410427 20.35087845 18.32294435 19.1878983 15.48828125 17.53125 C14.64845703 17.04269531 13.80863281 16.55414063 12.94335938 16.05078125 C11.64108398 15.28314453 11.64108398 15.28314453 10.3125 14.5 C9.43271484 13.98824219 8.55292969 13.47648437 7.64648438 12.94921875 C1.15603258 9.15603258 1.15603258 9.15603258 0 8 C-0.14115161 5.32941149 -0.04247107 2.67567762 0 0 Z " fill="#B6E6FF" transform="translate(92,37)"/>
<path d="M0 0 C2 1.375 2 1.375 2.8125 4.5 C2.874375 5.44875 2.93625 6.3975 3 7.375 C-1.64602706 11.05978008 -5.05874356 11.77779705 -11 11.375 C-14.375 10.1875 -14.375 10.1875 -17 8.375 C-17.875 5.6875 -17.875 5.6875 -18 3.375 C-12.16014442 -1.41667638 -7.26586512 -1.5137219 0 0 Z " fill="#FCFDFF" transform="translate(153,86.625)"/>
<path d="M0 0 C1.04929688 -0.02578125 2.09859375 -0.0515625 3.1796875 -0.078125 C6.46508608 0.28788757 7.7994316 0.940925 10.125 3.25 C10.6875 5.75 10.6875 5.75 10.125 8.25 C7.09264683 11.18127474 4.1808623 11.48576891 0.125 11.625 C-3.95510065 11.49122621 -6.74427469 11.07775189 -9.875 8.25 C-10.875 6.25 -10.875 6.25 -10.875 4.25 C-7.7765504 0.26627909 -4.85345536 0.07119983 0 0 Z " fill="#FDFEFF" transform="translate(145.875,50.75)"/>
<path d="M0 0 C2.76226958 3.23580151 2.85257103 5.09612525 2.61328125 9.24609375 C1.76685268 13.85097579 -0.42685737 17.08129581 -3.625 20.5 C-6.92196416 22.10138259 -9.19992307 22.06952834 -12.8125 21.5625 C-15.8125 19.625 -15.8125 19.625 -17.8125 16.5625 C-18.41490625 11.67935839 -17.21415527 7.67509462 -14.5 3.625 C-10.40631707 -1.44225222 -6.05245692 -3.09347798 0 0 Z M-10.3828125 2.0234375 C-10.89585938 2.65507813 -11.40890625 3.28671875 -11.9375 3.9375 C-12.45570312 4.56398438 -12.97390625 5.19046875 -13.5078125 5.8359375 C-15.60317876 8.60884734 -15.93011576 10.27032317 -15.875 13.6875 C-15.854375 14.96625 -15.83375 16.245 -15.8125 17.5625 C-15.4825 17.5625 -15.1525 17.5625 -14.8125 17.5625 C-14.55726562 16.56669922 -14.55726562 16.56669922 -14.296875 15.55078125 C-12.55305325 9.19696265 -10.50123262 5.25123262 -5.8125 0.5625 C-8.80389647 0.22192532 -8.80389647 0.22192532 -10.3828125 2.0234375 Z M-7.3125 4.3125 C-7.9209375 4.82296875 -8.529375 5.3334375 -9.15625 5.859375 C-12.07149986 8.85713193 -12.77443143 11.0105057 -13.0625 15.1875 C-13.17651384 18.63377924 -13.17651384 18.63377924 -10.8125 20.5625 C-7.97703789 20.64126284 -6.36520051 20.02219802 -4.1875 18.2109375 C-0.06383256 13.86919149 1.28745241 10.55964489 1.1875 4.5625 C0.0386303 2.49243467 0.0386303 2.49243467 -1.8125 1.5625 C-4.5124944 1.5625 -5.28216032 2.57466689 -7.3125 4.3125 Z " fill="#6BA6FF" transform="translate(18.8125,87.4375)"/>
<path d="M0 0 C0.99 0.66 1.98 1.32 3 2 C3.96486883 6.83303665 3.50367835 10.99264331 1.3125 15.375 C-2.9738933 20.24063564 -2.9738933 20.24063564 -6 22 C-10.22637815 22.07414699 -12.22832397 21.63663272 -15.5 18.9375 C-17.48370026 15.05275365 -17.25559684 12.05287588 -16 8 C-11.77577439 0.53720142 -8.59521482 -3.40227253 0 0 Z M-12 4 C-14.8689708 8.45185123 -15.315109 11.7481833 -15 17 C-13.71610101 14.53096349 -12.64559221 12.09787108 -11.625 9.5 C-10.0679212 6.14629181 -8.7472076 4.3927292 -6 2 C-5.34 1.34 -4.68 0.68 -4 0 C-8.02046842 0 -9.11726341 1.26140024 -12 4 Z M-9 6 C-11.8555662 10.43105099 -12.41079803 13.76232506 -12 19 C-10.96367261 20.23007345 -10.96367261 20.23007345 -8.75 20.375 C-4.7780721 19.83337347 -3.51515536 18.04466175 -1 15 C1.26931285 11.24389597 2.61383287 8.41959665 2 4 C1.34 3.34 0.68 2.68 0 2 C-4.77187019 2 -5.65941835 2.74507429 -9 6 Z " fill="#87BCFF" transform="translate(18,25)"/>
<path d="M0 0 C4.19415187 2.69624049 6.31673935 5.30458872 8 10 C8.49243895 13.11156479 8.62889001 15.90256979 8 19 C5.4600728 21.97534329 4.08396638 22.90364743 0.1875 23.25 C-0.534375 23.1675 -1.25625 23.085 -2 23 C-1.0409375 22.5359375 -1.0409375 22.5359375 -0.0625 22.0625 C1.93610821 21.1654837 1.93610821 21.1654837 3 20 C3.51636861 13.90685041 3.06682422 10.8575956 -1 6 C-3.40439855 3.67316269 -4.39051145 3.04155604 -7.75 2.8125 C-8.4925 2.874375 -9.235 2.93625 -10 3 C-6.55000356 -0.60681446 -4.93123712 -1.49083913 0 0 Z " fill="#4F8BFF" transform="translate(148,18)"/>
<path d="M0 0 C0.99 0.66 1.98 1.32 3 2 C3 2.66 3 3.32 3 4 C-3.75 8 -3.75 8 -6 8 C-6 10.97 -6 13.94 -6 17 C-6.33 17 -6.66 17 -7 17 C-7.061875 15.39125 -7.061875 15.39125 -7.125 13.75 C-7.64608309 9.76438296 -7.64608309 9.76438296 -11.0625 7.5625 C-12.031875 7.046875 -13.00125 6.53125 -14 6 C-13.9375 4.25 -13.9375 4.25 -13 2 C-8.0996346 -1.65125265 -5.76440311 -2.88220156 0 0 Z " fill="#ECF8FF" transform="translate(62,19)"/>
<path d="M0 0 C2.48996037 2.75914528 2.76557787 3.50514424 3 7.0625 C2.75317293 10.39740802 2.46457236 11.37240955 0.3125 14.0625 C-5.38946766 16.91348383 -9.68359787 17.10499544 -15.625 15.1875 C-19.47611789 13.77388211 -19.47611789 13.77388211 -20.6875 12.5625 C-20.890625 10.3828125 -20.890625 10.3828125 -20.9375 7.6875 C-20.96328125 6.80320312 -20.9890625 5.91890625 -21.015625 5.0078125 C-20.6875 2.5625 -20.6875 2.5625 -19.359375 0.8046875 C-13.99968587 -3.17751143 -5.8542045 -2.28214752 0 0 Z M-19.6875 3.5625 C-19.42343684 6.81927898 -19.12003722 8.18239153 -16.625 10.375 C-11.46379967 12.46144269 -7.36889255 12.1433447 -2.25 10.375 C0.53512939 8.78789982 0.53512939 8.78789982 1.1875 5.875 C1.22875 5.111875 1.27 4.34875 1.3125 3.5625 C-3.1746124 -0.21612096 -6.47581627 -1.05602249 -12.33984375 -0.84375 C-15.61427146 -0.2771269 -17.44463239 1.17010788 -19.6875 3.5625 Z M-18.6875 10.5625 C-15.73585376 13.65536186 -15.73585376 13.65536186 -11.69921875 14.765625 C-6.8157821 14.86411448 -3.70672823 14.67416057 0.3125 11.5625 C-0.3475 11.2325 -1.0075 10.9025 -1.6875 10.5625 C-2.6775 10.8925 -3.6675 11.2225 -4.6875 11.5625 C-6.33121491 11.65579934 -7.97864677 11.69245144 -9.625 11.6875 C-10.90697266 11.69136719 -10.90697266 11.69136719 -12.21484375 11.6953125 C-14.51430852 11.57180254 -16.48390348 11.20670687 -18.6875 10.5625 Z " fill="#508FFF" transform="translate(20.6875,59.4375)"/>
<path d="M0 0 C0.66 0.33 1.32 0.66 2 1 C2.76182137 8.92294221 2.76182137 8.92294221 0.1875 12.5625 C-4.53784518 14.69353802 -8.89859746 14.65205897 -14 14 C-17.08073848 12.6168113 -18.6384567 11.3615433 -21 9 C-21.125 5.375 -21.125 5.375 -21 2 C-20.79375 2.598125 -20.5875 3.19625 -20.375 3.8125 C-18.41076615 6.93741749 -16.42634728 7.70703876 -13 9 C-7.7305664 9.56458217 -4.55215455 8.66467584 0 6 C0 4.02 0 2.04 0 0 Z " fill="#528DFF" transform="translate(155,88)"/>
<path d="M0 0 C0.48227666 3.44961777 0.70632079 6.57303615 0 10 C-2.34601849 12.3880054 -4.90787785 13.75792133 -8 15 C-8.33 15 -8.66 15 -9 15 C-9.33 11.37 -9.66 7.74 -10 4 C-2.25 0 -2.25 0 0 0 Z " fill="#4484FF" transform="translate(54,29)"/>
<path d="M0 0 C0.33 0 0.66 0 1 0 C1 3.3 1 6.6 1 10 C1.99 10.33 2.98 10.66 4 11 C3.34 11.66 2.68 12.32 2 13 C1.53837573 15.43252661 1.53837573 15.43252661 1.375 18.125 C1.30023438 19.03507812 1.22546875 19.94515625 1.1484375 20.8828125 C1.09945312 21.58148438 1.05046875 22.28015625 1 23 C0.34 23 -0.32 23 -1 23 C-1.33 23.99 -1.66 24.98 -2 26 C-4.66083969 27.99396257 -7.61242325 30 -11 30 C-11 26.37 -11 22.74 -11 19 C-10.34 19.33 -9.68 19.66 -9 20 C-9.33 22.64 -9.66 25.28 -10 28 C-9.21625 27.505 -8.4325 27.01 -7.625 26.5 C-5 25 -5 25 -3 25 C-3.33 21.7 -3.66 18.4 -4 15 C-3.34 15 -2.68 15 -2 15 C-2 16.98 -2 18.96 -2 21 C-1.34 21 -0.68 21 0 21 C0 18.36 0 15.72 0 13 C-0.99 12.67 -1.98 12.34 -3 12 C-2.88601335 10.37419034 -2.75844341 8.74932843 -2.625 7.125 C-2.55539063 6.22007813 -2.48578125 5.31515625 -2.4140625 4.3828125 C-2 2 -2 2 0 0 Z " fill="#B9D6FF" transform="translate(56,27)"/>
<path d="M0 0 C3.465 1.98 3.465 1.98 7 4 C7 6.97 7 9.94 7 13 C5 13 5 13 3.5 11.5625 C3.005 11.046875 2.51 10.53125 2 10 C1.34 9.67 0.68 9.34 0 9 C0 6.03 0 3.06 0 0 Z " fill="#B1E3FF" transform="translate(38,30)"/>
<path d="M0 0 C0.287803 3.05071175 0.4472872 5.96060262 0 9 C-2.4223468 11.10361696 -3.78245634 12 -7 12 C-7.52672751 6.7327249 -7.52672751 6.7327249 -7 4 C-2.3 0 -2.3 0 0 0 Z " fill="#FCFDFF" transform="translate(53,43)"/>
<path d="M0 0 C0.43695709 5.33087655 0.43695709 5.33087655 0 8 C-2.40859879 10.02829372 -3.83044309 11 -7 11 C-7.43695709 5.66912345 -7.43695709 5.66912345 -7 3 C-4.59140121 0.97170628 -3.16955691 0 0 0 Z " fill="#FDFEFF" transform="translate(65,37)"/>
<path d="M0 0 C5 2 5 2 6 3 C6.04092937 5.33297433 6.04241723 7.66705225 6 10 C3.83125748 9.49396008 2.00032373 9.00016187 0 8 C0 9.98 0 11.96 0 14 C-0.33 14 -0.66 14 -1 14 C-0.67 9.38 -0.34 4.76 0 0 Z " fill="#91B6FF" transform="translate(84,116)"/>
<path d="M0 0 C0.33 0.66 0.66 1.32 1 2 C-0.051875 2.04125 -1.10375 2.0825 -2.1875 2.125 C-7.22500819 3.28114942 -8.11225169 4.83824509 -11 9 C-12.5635348 12.12706959 -12.39958487 15.57982443 -12 19 C-11.34 19.99 -10.68 20.98 -10 22 C-13.875 20.25 -13.875 20.25 -15 18 C-15.16531852 12.2020434 -13.97275724 7.89124248 -10.32421875 3.375 C-7.14669823 0.07562766 -4.47003272 -0.24833515 0 0 Z " fill="#B8E3FF" transform="translate(16,86)"/>
<path d="M0 0 C0 2.64 0 5.28 0 8 C-2.31 9.32 -4.62 10.64 -7 12 C-7.44117322 7.50003317 -7.52867608 5.65388883 -4.625 2.0625 C-2 0 -2 0 0 0 Z " fill="#FDFEFF" transform="translate(65,24)"/>
<path d="M0 0 C0 2.64 0 5.28 0 8 C-0.66 8 -1.32 8 -2 8 C-2 6.02 -2 4.04 -2 2 C-2.66 2 -3.32 2 -4 2 C-4 2.66 -4 3.32 -4 4 C-7.465 5.485 -7.465 5.485 -11 7 C-11.66 5.68 -12.32 4.36 -13 3 C-11.88625 2.814375 -11.88625 2.814375 -10.75 2.625 C-8.04077127 2.12955263 -8.04077127 2.12955263 -5.9375 0.9375 C-4 0 -4 0 0 0 Z " fill="#F3F9FF" transform="translate(56,40)"/>
<path d="M0 0 C0.66 0.33 1.32 0.66 2 1 C1.01 1.33 0.02 1.66 -1 2 C-1.33 5.63 -1.66 9.26 -2 13 C0.475 13.99 0.475 13.99 3 15 C1 16 1 16 -1.625 15.25 C-4 13 -4 13 -4.32421875 10.34765625 C-4.31341722 7.55006123 -4.21308901 4.78909841 -4 2 C-2.125 0.9375 -2.125 0.9375 0 0 Z " fill="#6BA5FF" transform="translate(40,26)"/>
<path d="M0 0 C0.99 0.33 1.98 0.66 3 1 C1.68 1.99 0.36 2.98 -1 4 C-0.7525 5.1446875 -0.7525 5.1446875 -0.5 6.3125 C0 9 0 9 0 12 C0.66 12.33 1.32 12.66 2 13 C2 13.66 2 14.32 2 15 C-0.475 14.01 -0.475 14.01 -3 13 C-3.08121924 11.39667209 -3.13929134 9.79215974 -3.1875 8.1875 C-3.22230469 7.29417969 -3.25710937 6.40085937 -3.29296875 5.48046875 C-2.95081002 2.58352485 -2.24606427 1.77444972 0 0 Z " fill="#5B96FF" transform="translate(3,59)"/>
<path d="M0 0 C3.96 1.98 3.96 1.98 8 4 C8 5.32 8 6.64 8 8 C2.25 6.25 2.25 6.25 0 4 C0 2.68 0 1.36 0 0 Z " fill="#BED3FF" transform="translate(134,69)"/>
<path d="M0 0 C-3.465 1.485 -3.465 1.485 -7 3 C-7.66 1.68 -8.32 0.36 -9 -1 C-5.22102349 -2.0497157 -3.35080929 -2.10976881 0 0 Z " fill="#DAE8FF" transform="translate(52,44)"/>
</svg>
