<svg width="1227" height="286" viewBox="0 0 1227 286" fill="none" xmlns="http://www.w3.org/2000/svg">
<rect x="110.5" y="118.902" width="25" height="5" rx="2.5" fill="url(#paint0_linear_61_3)" stroke="#60635F"/>
<rect x="110.5" y="129.902" width="25" height="5" rx="2.5" fill="url(#paint1_linear_61_3)" stroke="#60635F"/>
<rect x="110.5" y="140.902" width="25" height="5" rx="2.5" fill="url(#paint2_linear_61_3)" stroke="#60635F"/>
<circle cx="60" cy="132.402" r="5.5" fill="url(#paint3_linear_61_3)" stroke="#60635F"/>
<circle cx="133" cy="214.402" r="5.5" fill="url(#paint4_linear_61_3)" stroke="#60635F"/>
<path d="M2.44063 199.093C-2.39364 158.321 6.18651 121.978 11.5 109.902C13.7095 104.88 14.4692 103.034 14.6836 102.448C14.3844 102.919 14.9477 101.727 14.6836 102.448C14.7462 102.35 14.8465 102.178 15 101.902C18.3382 95.8876 20.4776 93.585 25 88.4019C29.361 83.4039 32.2289 80.9287 37.5 76.9019C44.1794 71.7994 48.2303 69.1084 56 65.902C64.8884 62.2339 70.4452 61.4812 80 60.402C94.2668 58.7906 116.303 62.5204 118.347 62.8752C118.46 62.8947 118.553 62.9152 118.664 62.9439C119.502 63.161 123.602 64.2501 132 66.902C139.932 69.4068 143.452 71.1911 150.441 76.3583C150.48 76.3869 150.514 76.4132 150.552 76.4431C151.486 77.1825 164.713 87.7398 170.5 96.902C174.396 101.899 176.47 106.177 179.5 110.402L182.002 115.021C183.806 118.352 181.394 122.402 177.605 122.402H147.987C145.225 122.402 142.987 120.163 142.987 117.402V112.402C142.987 109.641 140.748 107.402 137.987 107.402H118.5H96H51.5C48.7386 107.402 46.5 109.641 46.5 112.402V153.902C46.5 156.663 48.7386 158.902 51.5 158.902H96H137.987C140.748 158.902 142.987 156.663 142.987 153.902V148.612C142.987 145.77 145.377 143.502 148.217 143.598C190.603 145.03 186.111 140.838 186.002 149.108C185.999 149.298 186.01 149.488 186.031 149.676C186.255 151.673 187.631 164.137 188 172.402C188.42 181.795 188.015 196.385 188 196.889L188 196.918C187.99 197.418 187.724 209.714 186 217.402L185.885 217.914C184.278 225.089 183.252 229.665 180 236.402C173.408 250.057 160.164 260.608 158.643 261.791C158.545 261.868 158.448 261.936 158.343 262.003L150 267.402L141.811 272.701C141.604 272.835 141.387 272.953 141.163 273.055L130.826 277.754C130.609 277.853 130.385 277.935 130.157 278.002L118.601 281.373C118.534 281.392 118.473 281.409 118.405 281.425C117.276 281.7 106.302 284.342 98.9865 284.902C93.151 285.349 85 284.902 84 284.902C83 284.902 72.1656 283.764 65 281.402C59.9348 279.733 57.2556 278.316 52.5 275.902C46.4084 272.81 43.1354 270.763 37.5 266.902C34.8197 265.066 30.9332 262.114 30.1432 261.511C30.046 261.437 29.9542 261.361 29.8628 261.28L25.5 257.402L21.1198 253.022C21.04 252.942 20.9646 252.861 20.8904 252.776C20.2612 252.054 17.0637 248.38 15 245.902C12.4284 242.814 9.45616 237.612 8.6885 236.241C8.56094 236.013 8.41983 235.798 8.26024 235.592L6.22605 232.959C3.68644 229.673 6.02903 224.902 10.1825 224.902H41.5C44.2614 224.902 46.5 227.141 46.5 229.902V235.402C46.5 238.163 48.7386 240.402 51.5 240.402H96H137.987C140.748 240.402 142.987 238.163 142.987 235.402V192.902C142.987 190.141 140.748 187.902 137.987 187.902H102.5H51.5C48.7386 187.902 46.5 190.141 46.5 192.902V198.402C46.5 201.163 44.2614 203.402 41.5 203.402H25H7.3437C4.85232 203.402 2.73397 201.567 2.44063 199.093Z" fill="url(#paint5_linear_61_3)" stroke="#1B1B1B"/>
<rect x="54.5" y="200.902" width="25" height="5" rx="2.5" fill="url(#paint6_linear_61_3)" stroke="#60635F"/>
<rect x="54.5" y="211.902" width="25" height="5" rx="2.5" fill="url(#paint7_linear_61_3)" stroke="#60635F"/>
<rect x="54.5" y="222.902" width="25" height="5" rx="2.5" fill="url(#paint8_linear_61_3)" stroke="#60635F"/>
<path d="M245.005 218.456L276.09 207.695C276.06 211.764 277.174 215.353 279.43 218.462C281.686 221.571 283.95 223.622 286.221 224.615L289.626 226.349L289.395 258.086C275.561 257.986 263.805 251.878 254.127 239.763C248.161 232.069 245.12 224.967 245.005 218.456ZM247.58 133.023C247.71 115.12 255.458 101.748 270.822 92.9077C277.851 88.727 284.459 86.5778 290.645 86.4601L290.41 118.686C286.333 119.795 283.301 122.703 281.313 127.409C280.652 128.869 280.315 130.413 280.303 132.04C280.254 138.713 285.177 144.446 295.071 149.238C297.179 150.23 300.587 151.72 305.292 153.707C313.082 156.856 318.598 159.419 321.838 161.396C334.965 169.304 343.696 177.343 348.031 185.513C351.24 191.884 352.816 198.976 352.759 206.788C352.651 221.599 346.943 234.253 335.636 244.751C325.967 253.795 315.03 258.273 302.823 258.184L303.054 226.447C309.407 225.679 313.907 222.375 316.554 216.535C317.712 213.939 318.303 211.095 318.325 208.003C318.386 199.702 312.251 192.821 299.92 187.36C297.649 186.367 294.078 184.958 289.209 183.132C283.526 181.137 279.55 179.562 277.28 178.406C263.331 171.631 254.443 162.94 250.613 152.332C248.539 146.621 247.528 140.184 247.58 133.023ZM303.838 118.784L304.072 86.5578C317.744 86.6573 329.176 92.5187 338.369 104.142C343.69 111.017 346.412 117.222 346.534 122.757L314.721 133.023C314.77 126.188 311.468 121.525 304.812 119.035C304.163 118.867 303.838 118.784 303.838 118.784ZM361.472 150.21L361.701 118.716L378.79 118.841L379.05 83.1973L411.764 83.4354L411.504 119.079L427.617 119.196L427.386 150.934L411.273 150.816L410.802 215.512C411.085 221.374 414.074 224.406 419.77 224.611L426.849 224.662L433.928 258.406L419.28 258.299C397.959 258.144 384.997 249.993 380.395 233.846C378.81 227.975 378.047 220.97 378.106 212.832L378.561 150.334L361.472 150.21ZM445.915 221.627L446.66 119.335L479.862 119.577L479.146 217.963C479.426 224.15 483.146 227.351 490.307 227.566L490.07 260.036C474.12 259.919 461.715 253.563 452.854 240.965C448.183 234.258 445.87 227.812 445.915 221.627ZM501.3 260.117L501.537 227.647C508.541 226.885 512.389 223.739 513.08 218.21L513.797 119.824L546.999 120.065L546.254 222.358C546.198 230.007 542.562 237.712 535.343 245.472C526.158 255.171 514.81 260.053 501.3 260.117ZM565.516 259.364L566.789 84.564L600.479 84.8092L599.207 259.609L565.516 259.364ZM612.146 259.703L612.377 227.966L621.166 228.03C622.143 228.037 623.038 227.962 623.853 227.805C624.832 227.487 625.648 227.167 626.302 226.847C626.955 226.526 627.528 226.123 628.02 225.638C628.511 225.154 628.84 224.668 629.007 224.181C629.336 223.695 629.583 223.29 629.748 222.965C629.914 222.478 630.08 222.073 630.245 221.748L630.247 221.504L630.702 159.006C630.716 157.053 629.508 155.335 627.077 153.852C625.618 153.028 623.913 152.527 621.961 152.35L612.928 152.284L613.159 120.547L621.948 120.611C636.596 120.718 648.024 127.23 656.23 140.148C660.253 146.525 662.325 152.563 662.446 158.26L661.981 222.223C661.927 229.547 658.699 237.093 652.294 244.859C643.921 254.726 633.468 259.696 620.935 259.767L612.146 259.703ZM679.283 260.192L680.555 85.3921L715.711 85.6481L714.438 260.448L679.283 260.192ZM731.03 228.341L731.121 215.891C731.359 205.475 735.812 197.451 744.48 191.817C746.604 190.693 755.172 187.582 770.183 182.483C787.641 176.75 796.386 171.605 796.419 167.048L796.46 161.433C796.34 155.573 792.782 152.373 785.788 151.834L786.006 121.805C798.213 121.894 808.436 126.119 816.676 134.48C824.107 142.184 827.79 150.512 827.725 159.463L827.261 223.182C827.389 228.066 829.648 230.687 834.04 231.045L833.82 261.317C823.892 261.245 815.936 258.583 809.952 253.331C803.567 258.33 795.329 260.874 785.237 260.964L785.456 230.935C786.758 230.944 787.98 230.791 789.121 230.473C793.688 229.205 795.989 226.129 796.025 221.246L796.17 201.227C791.757 203.799 783.19 206.829 770.469 210.318C765.251 211.582 762.234 212.455 761.416 212.937C759.456 213.9 758.385 215.764 758.202 218.529L758.177 221.947C758.17 222.924 758.244 223.901 758.4 224.879C759.348 228.792 763.972 230.779 772.273 230.839L772.054 260.868C761.149 260.788 751.892 257.954 744.283 252.364C735.379 245.789 730.961 237.781 731.03 228.341ZM733.263 156.334C733.486 148.035 736.959 140.492 743.682 133.705C752.205 125.628 762.081 121.631 773.311 121.713L773.093 151.741C765.605 151.85 761.742 157.03 761.504 167.282L733.263 156.334ZM850.177 261.436L851.449 86.6362L885.14 86.8815L883.867 261.682L850.177 261.436ZM896.807 261.776L897.038 230.038L905.826 230.102C906.803 230.109 907.699 230.034 908.514 229.878C909.493 229.559 910.309 229.24 910.962 228.919C911.615 228.598 912.188 228.195 912.68 227.711C913.172 227.226 913.501 226.74 913.667 226.253C913.996 225.767 914.243 225.362 914.408 225.038C914.575 224.551 914.74 224.145 914.906 223.821L914.907 223.576L915.362 161.078C915.377 159.125 914.168 157.407 911.738 155.925C910.279 155.1 908.573 154.599 906.621 154.422L897.589 154.357L897.82 122.619L906.608 122.683C921.256 122.79 932.684 129.302 940.891 142.22C944.914 148.598 946.986 154.635 947.107 160.333L946.641 224.296C946.588 231.62 943.359 239.165 936.955 246.931C928.582 256.799 918.129 261.768 905.595 261.84L896.807 261.776Z" fill="url(#paint9_linear_61_3)"/>
<defs>
<linearGradient id="paint0_linear_61_3" x1="123" y1="118.402" x2="123" y2="124.402" gradientUnits="userSpaceOnUse">
<stop stop-color="#F9FAF8"/>
<stop offset="1" stop-color="#90928E"/>
</linearGradient>
<linearGradient id="paint1_linear_61_3" x1="123" y1="129.402" x2="123" y2="135.402" gradientUnits="userSpaceOnUse">
<stop stop-color="#F9FAF8"/>
<stop offset="1" stop-color="#90928E"/>
</linearGradient>
<linearGradient id="paint2_linear_61_3" x1="123" y1="140.402" x2="123" y2="146.402" gradientUnits="userSpaceOnUse">
<stop stop-color="#F9FAF8"/>
<stop offset="1" stop-color="#90928E"/>
</linearGradient>
<linearGradient id="paint3_linear_61_3" x1="60" y1="126.402" x2="60" y2="138.402" gradientUnits="userSpaceOnUse">
<stop stop-color="#F9FAF8"/>
<stop offset="1" stop-color="#90928E"/>
</linearGradient>
<linearGradient id="paint4_linear_61_3" x1="133" y1="208.402" x2="133" y2="220.402" gradientUnits="userSpaceOnUse">
<stop stop-color="#F9FAF8"/>
<stop offset="1" stop-color="#90928E"/>
</linearGradient>
<linearGradient id="paint5_linear_61_3" x1="94.0949" y1="60" x2="94.0949" y2="285.1" gradientUnits="userSpaceOnUse">
<stop stop-color="#F9FAF8"/>
<stop offset="1" stop-color="#90928E"/>
</linearGradient>
<linearGradient id="paint6_linear_61_3" x1="67" y1="200.402" x2="67" y2="206.402" gradientUnits="userSpaceOnUse">
<stop stop-color="#F9FAF8"/>
<stop offset="1" stop-color="#90928E"/>
</linearGradient>
<linearGradient id="paint7_linear_61_3" x1="67" y1="211.402" x2="67" y2="217.402" gradientUnits="userSpaceOnUse">
<stop stop-color="#F9FAF8"/>
<stop offset="1" stop-color="#90928E"/>
</linearGradient>
<linearGradient id="paint8_linear_61_3" x1="67" y1="222.402" x2="67" y2="228.402" gradientUnits="userSpaceOnUse">
<stop stop-color="#F9FAF8"/>
<stop offset="1" stop-color="#90928E"/>
</linearGradient>
<linearGradient id="paint9_linear_61_3" x1="733.204" y1="3.57793" x2="745.52" y2="238.189" gradientUnits="userSpaceOnUse">
<stop stop-color="#F9FAF8"/>
<stop offset="1" stop-color="#90928E"/>
</linearGradient>
</defs>
</svg>
